<?xml version="1.0" encoding="utf-8"?>
<!-- Svg Vector Icons : http://www.onlinewebfonts.com/icon -->
<!DOCTYPE svg PUBLIC "-//W3C//DTD SVG 1.1//EN" "http://www.w3.org/Graphics/SVG/1.1/DTD/svg11.dtd">
<svg version="1.1" xmlns="http://www.w3.org/2000/svg" xmlns:xlink="http://www.w3.org/1999/xlink" x="0px" y="0px" viewBox="0 0 1000 1000" enable-background="new 0 0 1000 1000" xml:space="preserve">
<metadata> Svg Vector Icons : http://www.onlinewebfonts.com/icon </metadata>
<g><g transform="translate(0.000000,511.000000) scale(0.100000,-0.100000)"><path d="M2989.3,4973.5c-178.9-61.6-325.1-213.5-371.2-388.5c-13.5-46.2-17.3-1646.5-15.4-4520.1l5.8-4450.9l44.2-80.8c67.3-126.9,152-211.6,269.3-269.3l109.6-53.9h1971.5h1971.5l109.6,53.9c117.3,57.7,202,142.3,269.3,269.3l44.2,80.8V105.2v4491.3l-57.7,103.9c-71.2,126.9-177,221.2-311.6,271.2C6926.6,5010,6882.3,5010,5007,5010C3216.2,5008.1,3083.5,5006.2,2989.3,4973.5z M7138.2,105.2v-3596.9h-2135h-2135V105.2v3596.9h2135h2135V105.2z M5176.2-3803.3c113.5-78.8,144.3-138.5,144.3-282.8c0-111.6-7.7-140.4-51.9-198.1c-73.1-96.2-169.3-136.6-296.2-126.9c-315.4,26.9-411.6,427-144.3,605.9C4918.5-3743.6,5087.7-3743.6,5176.2-3803.3z"/></g></g>
</svg>