<svg width="168" height="138" viewBox="0 0 168 138" fill="none" xmlns="http://www.w3.org/2000/svg">
<g clip-path="url(#clip0_110_587)">
<path opacity="0.5" d="M76.8735 128.992L168 72.1839L130.877 49.0898L73.1003 88.9973L46.8842 121.395L76.8735 128.992Z" fill="#0F054C"/>
<path opacity="0.5" d="M123.71 43.3307C124.71 40.498 117.969 35.5807 108.654 32.3477C99.3384 29.1147 90.9762 28.7902 89.9763 31.623C88.9764 34.4558 95.7175 39.3731 105.033 42.6061C114.348 45.8391 122.711 46.1635 123.71 43.3307Z" fill="#0F054C"/>
<path d="M113.563 21.3073L113.447 18.392L112.763 16.6858L112.33 18.0964L113.563 21.3073Z" fill="#DD821F"/>
<path d="M82.7129 21.8647L82.5978 19.0032C82.5978 19.0032 85.0365 21.4147 85.0365 21.4751C85.0365 21.5356 82.7129 21.8647 82.7129 21.8647Z" fill="#FFD85A"/>
<path d="M98.3477 30.3486C106.87 30.1471 113.624 25.8547 113.447 18.3918C113.271 10.9289 106.213 5.05128 97.6974 5.25952C89.1822 5.46775 82.4216 11.6678 82.5977 19.1307C82.7739 26.5936 89.8326 30.5501 98.3477 30.3486Z" fill="#FFD85A"/>
<path d="M98.4635 35.1861C106.984 34.984 113.745 28.774 113.565 21.3156C113.385 13.8572 106.332 7.97482 97.8121 8.17687C89.2919 8.37893 82.5307 14.5889 82.7106 22.0473C82.8905 29.5057 89.9433 35.3882 98.4635 35.1861Z" fill="#FFD85A"/>
<path d="M108.902 11.9434C110.303 13.0878 111.443 14.5144 112.247 16.1287C113.05 17.743 113.499 19.5082 113.563 21.3073C113.745 28.7635 106.985 34.9769 98.4629 35.1785C94.5085 35.3138 90.6371 34.0333 87.5564 31.5713L108.902 11.9434Z" fill="#DD821F"/>
<path d="M98.4489 34.5816C106.588 34.3886 113.046 28.4565 112.874 21.3319C112.702 14.2073 105.965 8.58814 97.8266 8.78115C89.6879 8.97415 83.2295 14.9062 83.4013 22.0308C83.5732 29.1554 90.3102 34.7746 98.4489 34.5816Z" fill="#F9BF30"/>
<path d="M98.3875 32.0366C104.922 31.8816 110.107 27.1199 109.969 21.4009C109.831 15.6819 104.422 11.1714 97.888 11.3264C91.3539 11.4813 86.1687 16.2431 86.3066 21.962C86.4446 27.681 91.8534 32.1915 98.3875 32.0366Z" fill="#F2B42A"/>
<path d="M86.3101 21.9522C86.3101 21.717 86.3101 21.4819 86.3101 21.2804C86.852 26.6543 92.0817 30.7988 98.341 30.6846C104.6 30.5704 109.627 26.1505 109.905 20.7498C109.905 20.9849 109.945 21.2132 109.952 21.4215C110.087 27.1379 104.905 31.9005 98.3749 32.0617C91.8446 32.2229 86.4455 27.6753 86.3101 21.9522Z" fill="#FFD85A"/>
<path d="M95.8684 22.55L98.2936 20.3198C100.631 20.8438 104.986 21.8312 108.455 22.6373C107.976 23.9598 107.216 25.1652 106.228 26.1721C105.239 27.179 104.044 27.9642 102.724 28.4746L95.8684 22.55Z" fill="#FFD85A"/>
<path d="M99.689 29.2672C99.3029 29.3142 98.91 29.3411 98.5103 29.3545C95.8262 29.4421 93.1978 28.5829 91.0925 26.9296L95.0554 23.2888L99.689 29.2672Z" fill="#FFD85A"/>
<path d="M100.902 17.9285L105.474 13.7302C107.012 15.0737 108.387 16.5313 108.76 18.4928L100.902 17.9285Z" fill="#FFD85A"/>
<path d="M98.5104 12.5547C91.98 12.7092 86.791 17.4717 86.9333 23.1949C86.9537 24.3261 87.1833 25.444 87.6107 26.4931C86.786 25.1188 86.3312 23.5575 86.2897 21.9589C86.1542 16.2425 91.3365 11.4799 97.8668 11.3187C103.076 11.1978 107.567 14.0056 109.247 18.0964C107.256 14.7109 103.171 12.4472 98.5104 12.5547Z" fill="#DD821F"/>
<path d="M113.447 18.3921C113.548 19.3763 113.503 20.3699 113.312 21.341C112.973 20.246 112.235 16.9747 112.235 16.9747L111.097 14.3751L110.121 13.5758L108.468 12.3801L108.333 8.63184C109.864 9.77931 111.117 11.2508 112.002 12.9392C112.886 14.6277 113.38 16.4905 113.447 18.3921Z" fill="#DD821F"/>
<path d="M83.5935 18.0092L83.5258 17.2434C83.5258 17.1917 83.5051 17.1422 83.4682 17.1056C83.4314 17.0691 83.3814 17.0486 83.3293 17.0486H83.2684C83.2175 17.052 83.1699 17.075 83.1358 17.1126C83.1016 17.1502 83.0836 17.1995 83.0855 17.2501L83.1532 18.0159C83.1532 18.0675 83.1739 18.1171 83.2107 18.1536C83.2476 18.1902 83.2976 18.2107 83.3497 18.2107H83.4106C83.4615 18.2072 83.5091 18.1843 83.5432 18.1466C83.5774 18.109 83.5954 18.0597 83.5935 18.0092Z" fill="#DD821F"/>
<path d="M84.9484 15.0669L84.8671 13.6831C84.8749 13.6253 84.8593 13.5667 84.8238 13.5202C84.7883 13.4737 84.7357 13.4429 84.6775 13.4346H84.542C84.5126 13.4363 84.4839 13.4437 84.4574 13.4565C84.4309 13.4692 84.4073 13.487 84.3877 13.5089C84.3682 13.5307 84.3533 13.5562 84.3437 13.5838C84.3341 13.6114 84.3301 13.6406 84.332 13.6697L84.4133 15.0534C84.4133 15.1122 84.4368 15.1686 84.4787 15.2102C84.5207 15.2518 84.5775 15.2751 84.6368 15.2751H84.7723C84.8208 15.2647 84.8644 15.2386 84.8963 15.2009C84.9282 15.1632 84.9465 15.116 84.9484 15.0669Z" fill="#DD821F"/>
<path d="M86.8317 12.4941L86.7504 11.1506C86.7504 11.118 86.7439 11.0857 86.7313 11.0555C86.7187 11.0254 86.7002 10.998 86.677 10.9749C86.6537 10.9518 86.6261 10.9335 86.5956 10.921C86.5652 10.9085 86.5326 10.9021 86.4997 10.9021H86.2626C86.2297 10.9038 86.1974 10.912 86.1677 10.9261C86.1379 10.9402 86.1113 10.96 86.0893 10.9843C86.0672 11.0086 86.0503 11.037 86.0393 11.0679C86.0284 11.0987 86.0237 11.1314 86.0255 11.1641L86.1068 12.5075C86.1068 12.5734 86.1332 12.6367 86.1802 12.6833C86.2272 12.7299 86.291 12.7561 86.3575 12.7561H86.5946C86.6275 12.7544 86.6598 12.7462 86.6895 12.7321C86.7193 12.718 86.7459 12.6982 86.7679 12.6739C86.79 12.6495 86.8069 12.6211 86.8179 12.5903C86.8288 12.5594 86.8335 12.5267 86.8317 12.4941Z" fill="#DD821F"/>
<path d="M89.6429 10.4251L89.5548 8.79957C89.5548 8.73365 89.5284 8.67043 89.4814 8.62382C89.4344 8.57721 89.3706 8.55103 89.3042 8.55103H89.0671C89.0341 8.55274 89.0019 8.56089 88.9721 8.57499C88.9424 8.5891 88.9157 8.60888 88.8937 8.63322C88.8717 8.65756 88.8547 8.68596 88.8438 8.71681C88.8328 8.74766 88.8281 8.78035 88.83 8.813L88.918 10.4386C88.918 10.4712 88.9245 10.5035 88.9371 10.5337C88.9497 10.5639 88.9682 10.5912 88.9915 10.6143C89.0147 10.6374 89.0424 10.6557 89.0728 10.6682C89.1032 10.6807 89.1358 10.6871 89.1687 10.6871H89.4193C89.4834 10.6803 89.5424 10.6493 89.584 10.6005C89.6257 10.5518 89.6467 10.4889 89.6429 10.4251Z" fill="#DD821F"/>
<path d="M92.4745 9.0615L92.3865 7.1941C92.3865 7.12818 92.3601 7.06496 92.3131 7.01835C92.2661 6.97174 92.2023 6.94556 92.1358 6.94556H91.8987C91.8658 6.94727 91.8335 6.95542 91.8038 6.96952C91.774 6.98363 91.7474 7.00341 91.7254 7.02775C91.7033 7.05209 91.6864 7.08049 91.6754 7.11134C91.6645 7.14219 91.6598 7.17488 91.6616 7.20753L91.7497 9.07494C91.7497 9.14085 91.7761 9.20407 91.8231 9.25068C91.8701 9.29729 91.9339 9.32348 92.0003 9.32348H92.2374C92.2704 9.32176 92.3026 9.31362 92.3324 9.29951C92.3621 9.28541 92.3888 9.26562 92.4108 9.24128C92.4328 9.21695 92.4498 9.18854 92.4607 9.15769C92.4717 9.12684 92.4764 9.09415 92.4745 9.0615Z" fill="#DD821F"/>
<path d="M95.3129 8.2287L95.2249 6.42847C95.2249 6.36255 95.1984 6.29934 95.1514 6.25273C95.1044 6.20612 95.0407 6.17993 94.9742 6.17993H94.7371C94.7042 6.18165 94.6719 6.18979 94.6422 6.2039C94.6124 6.218 94.5858 6.23779 94.5637 6.26213C94.5417 6.28646 94.5247 6.31487 94.5138 6.34572C94.5029 6.37657 94.4982 6.40926 94.5 6.44191L94.5881 8.24214C94.5881 8.27478 94.5946 8.3071 94.6072 8.33725C94.6198 8.36741 94.6382 8.3948 94.6615 8.41788C94.6848 8.44096 94.7124 8.45927 94.7428 8.47176C94.7732 8.48425 94.8058 8.49068 94.8387 8.49068H95.0758C95.1088 8.48896 95.141 8.48082 95.1708 8.46671C95.2005 8.45261 95.2272 8.43282 95.2492 8.40848C95.2712 8.38415 95.2882 8.35574 95.2991 8.32489C95.3101 8.29404 95.3147 8.26135 95.3129 8.2287Z" fill="#DD821F"/>
<path d="M98.1716 7.94649L98.0835 6.11939C98.0835 6.05347 98.0571 5.99026 98.0101 5.94365C97.9631 5.89704 97.8993 5.87085 97.8328 5.87085H97.5958C97.5628 5.87257 97.5306 5.88071 97.5008 5.89482C97.4711 5.90892 97.4444 5.92871 97.4224 5.95304C97.4004 5.97738 97.3834 6.00579 97.3725 6.03664C97.3615 6.06749 97.3568 6.10017 97.3587 6.13282L97.4467 7.95993C97.4467 8.02584 97.4731 8.08906 97.5201 8.13567C97.5671 8.18228 97.6309 8.20847 97.6974 8.20847H97.9345C97.9674 8.20675 97.9997 8.1986 98.0294 8.1845C98.0592 8.1704 98.0858 8.15061 98.1078 8.12627C98.1299 8.10194 98.1468 8.07353 98.1578 8.04268C98.1687 8.01183 98.1734 7.97914 98.1716 7.94649Z" fill="#DD821F"/>
<path d="M101.037 8.00698L100.935 6.30079C100.935 6.26815 100.929 6.23583 100.916 6.20567C100.904 6.17552 100.885 6.14812 100.862 6.12504C100.839 6.10196 100.811 6.08365 100.781 6.07116C100.75 6.05867 100.718 6.05225 100.685 6.05225H100.448C100.415 6.05396 100.382 6.06211 100.353 6.07621C100.323 6.09032 100.296 6.1101 100.274 6.13444C100.252 6.15878 100.235 6.18718 100.224 6.21803C100.213 6.24888 100.209 6.28157 100.211 6.31422L100.299 8.02713C100.299 8.09305 100.325 8.15626 100.372 8.20287C100.419 8.24948 100.483 8.27567 100.549 8.27567H100.786C100.821 8.27578 100.855 8.26875 100.887 8.25502C100.919 8.24129 100.948 8.22116 100.971 8.1959C100.995 8.17064 101.013 8.14081 101.024 8.10829C101.035 8.07577 101.04 8.04127 101.037 8.00698Z" fill="#DD821F"/>
<path d="M103.909 8.63171L103.821 6.97925C103.821 6.91334 103.795 6.85012 103.748 6.80351C103.701 6.7569 103.637 6.73071 103.571 6.73071H103.334C103.301 6.73243 103.268 6.74057 103.239 6.75468C103.209 6.76878 103.182 6.78857 103.16 6.81291C103.138 6.83724 103.121 6.86565 103.11 6.8965C103.099 6.92735 103.095 6.96004 103.096 6.99269L103.185 8.65186C103.185 8.6845 103.191 8.71681 103.204 8.74697C103.216 8.77712 103.235 8.80452 103.258 8.8276C103.281 8.85068 103.309 8.86899 103.339 8.88148C103.37 8.89397 103.402 8.9004 103.435 8.9004H103.645C103.681 8.90244 103.717 8.89684 103.75 8.88396C103.784 8.87109 103.814 8.85125 103.839 8.82577C103.864 8.8003 103.883 8.76979 103.895 8.73631C103.908 8.70283 103.912 8.66716 103.909 8.63171Z" fill="#DD821F"/>
<path d="M106.809 10.0223L106.721 8.22876C106.721 8.16285 106.694 8.09963 106.647 8.05302C106.6 8.00641 106.536 7.98022 106.47 7.98022H106.233C106.2 7.98194 106.168 7.99009 106.138 8.00419C106.108 8.0183 106.081 8.03808 106.059 8.06242C106.037 8.08676 106.02 8.11516 106.01 8.14601C105.999 8.17686 105.994 8.20955 105.996 8.2422L106.084 10.0357C106.084 10.1016 106.11 10.1648 106.157 10.2115C106.204 10.2581 106.268 10.2843 106.334 10.2843H106.572C106.604 10.2825 106.637 10.2744 106.667 10.2603C106.696 10.2462 106.723 10.2264 106.745 10.2021C106.767 10.1777 106.784 10.1493 106.795 10.1185C106.806 10.0876 106.81 10.0549 106.809 10.0223Z" fill="#DD821F"/>
<path d="M7.0349e-06 93.9279V99.9735C-0.000349967 100.02 0.0128877 100.066 0.0381264 100.105C0.0633652 100.144 0.0995292 100.176 0.142265 100.195L66.4481 137.919C66.581 137.979 66.7262 138.007 66.8721 138.002C67.018 137.996 67.1604 137.956 67.2881 137.886L78.1268 131.659C78.1753 131.635 78.2179 131.601 78.2519 131.559C78.2858 131.518 78.3101 131.469 78.3232 131.417V125.311L73.08 128.28L11.8819 93.451C11.7485 93.3922 11.603 93.3652 11.4571 93.3722C11.3112 93.3792 11.169 93.42 11.0419 93.4913L7.33646 95.6274L7.0349e-06 93.9279Z" fill="url(#paint0_linear_110_587)"/>
<path d="M11.8548 87.3718L78.1606 125.096C78.3774 125.217 78.3503 125.439 78.0997 125.58L67.261 131.807C67.1333 131.877 66.9909 131.917 66.845 131.922C66.6991 131.928 66.5539 131.9 66.421 131.84L0.149037 94.116C-0.0677369 93.9951 -0.0406401 93.7734 0.210005 93.6323L11.0487 87.4054C11.172 87.3405 11.3084 87.3037 11.4479 87.2979C11.5874 87.2921 11.7265 87.3174 11.8548 87.3718Z" fill="url(#paint1_linear_110_587)"/>
<path opacity="0.6" d="M14.2258 96.4603L66.3871 125.566C66.7902 123.459 67.3865 121.393 68.1687 119.393L16.1294 89.8035C15.2742 91.9545 14.6366 94.1844 14.2258 96.4603Z" fill="#24126A"/>
<path d="M9.55837 90.8647L72.0774 126.466C72.2264 126.554 72.2061 126.701 72.0368 126.795L69.3271 128.361C69.237 128.403 69.1387 128.424 69.0392 128.424C68.9397 128.424 68.8414 128.403 68.7513 128.361L6.23224 92.759C6.08321 92.6717 6.10354 92.5239 6.27289 92.4298L8.98257 90.8647C9.07265 90.8228 9.17095 90.801 9.27047 90.801C9.36999 90.801 9.46829 90.8228 9.55837 90.8647Z" fill="#24126A"/>
<path d="M6.22552 92.7793L7.49907 93.5047L8.96229 92.6584C9.05238 92.6164 9.15068 92.5947 9.2502 92.5947C9.34972 92.5947 9.44801 92.6164 9.5381 92.6584L70.7836 127.508L72.03 126.789C72.1994 126.688 72.2197 126.54 72.0707 126.46L9.55165 90.8581C9.46156 90.8162 9.36326 90.7944 9.26374 90.7944C9.16422 90.7944 9.06593 90.8162 8.97584 90.8581L6.26616 92.4232C6.09681 92.5509 6.09681 92.6987 6.22552 92.7793Z" fill="#236743"/>
<path opacity="0.96" d="M167.16 29.5964L115.161 0C115.161 9.24299 108.672 20.4944 100.617 25.1361L28.9258 66.4273C19.4419 71.8817 11.8006 85.1081 11.8277 95.9834L63.84 125.58C63.84 114.718 71.4677 101.492 80.938 96.0237L152.616 54.7325C160.67 50.0908 167.187 38.8394 167.16 29.5964Z" fill="url(#paint2_linear_110_587)"/>
<path opacity="0.8" d="M11.8278 95.9698L63.84 125.566C63.84 125.089 63.84 124.606 63.8874 124.122L11.882 94.5659C11.8481 95.016 11.8278 95.4929 11.8278 95.9698Z" fill="#236743"/>
<g opacity="0.32">
<path opacity="0.32" d="M87.15 73.7759L98.9303 80.4797L97.7923 81.1313L86.012 74.4342L87.15 73.7759Z" fill="#236743"/>
<path opacity="0.32" d="M81.1074 70.3433L85.3481 72.7548L84.21 73.4064L79.9694 70.9948L81.1074 70.3433Z" fill="#236743"/>
<path opacity="0.32" d="M76.4197 67.6765L79.3055 69.3155L78.1743 69.9671L75.2885 68.3281L76.4197 67.6765Z" fill="#236743"/>
<path opacity="0.32" d="M95.0961 75.3411L101.518 78.9885L100.387 79.6401L93.9648 75.9926L95.0961 75.3411Z" fill="#236743"/>
<path opacity="0.32" d="M85.4294 69.8396L93.2942 74.3133L92.1629 74.9649L84.2981 70.4912L85.4294 69.8396Z" fill="#236743"/>
<path opacity="0.32" d="M80.7485 67.1729L83.6343 68.8119L82.4962 69.4702L79.6172 67.8244L80.7485 67.1729Z" fill="#236743"/>
<path opacity="0.32" d="M76.291 64.6404L79.1768 66.2794L78.0387 66.931L75.1597 65.292L76.291 64.6404Z" fill="#236743"/>
<path opacity="0.32" d="M99.4587 74.8574L104.106 77.4973L102.974 78.1489L98.3274 75.509L99.4587 74.8574Z" fill="#236743"/>
<path opacity="0.32" d="M96.0716 72.9294L97.6635 73.8296L96.5255 74.4879L94.9403 73.581L96.0716 72.9294Z" fill="#236743"/>
<path opacity="0.32" d="M91.3907 70.2627L94.2765 71.9084L93.1384 72.56L90.2594 70.921L91.3907 70.2627Z" fill="#236743"/>
<path opacity="0.32" d="M89.5548 66.2524L106.694 76.006L105.562 76.6575L88.4167 66.904L89.5548 66.2524Z" fill="#236743"/>
<path opacity="0.32" d="M83.5123 62.8201L87.753 65.2316L86.6217 65.8832L82.3743 63.4716L83.5123 62.8201Z" fill="#236743"/>
<path opacity="0.32" d="M104.641 71.875L109.281 74.5149L108.15 75.1665L103.503 72.5266L104.641 71.875Z" fill="#236743"/>
<path opacity="0.32" d="M93.7413 65.6748L102.839 70.8471L101.708 71.5054L92.6033 66.3264L93.7413 65.6748Z" fill="#236743"/>
<path opacity="0.32" d="M89.0603 63.0081L91.9393 64.6471L90.8081 65.2987L87.9222 63.6596L89.0603 63.0081Z" fill="#236743"/>
<path opacity="0.32" d="M102.372 67.6162L111.876 73.0236L110.738 73.6752L101.234 68.2745L102.372 67.6162Z" fill="#236743"/>
<path opacity="0.32" d="M93.7007 62.6855L100.57 66.595L99.4384 67.2466L92.5626 63.3371L93.7007 62.6855Z" fill="#236743"/>
<path opacity="0.32" d="M87.2517 59.0181L91.8988 61.658L90.7675 62.3163L86.1204 59.6696L87.2517 59.0181Z" fill="#236743"/>
<path opacity="0.32" d="M111.253 69.7051L114.464 71.5322L113.326 72.1838L110.121 70.3634L111.253 69.7051Z" fill="#236743"/>
<path opacity="0.32" d="M105.21 66.2727L109.451 68.6842L108.319 69.3358L104.079 66.9243L105.21 66.2727Z" fill="#236743"/>
<path opacity="0.32" d="M96.5729 61.3557L103.408 65.245L102.277 65.8966L95.4417 62.0073L96.5729 61.3557Z" fill="#236743"/>
<path opacity="0.32" d="M107.222 64.4456L117.051 70.041L115.92 70.6926L106.084 65.1038L107.222 64.4456Z" fill="#236743"/>
<path opacity="0.32" d="M96.2071 58.1851L105.42 63.4245L104.289 64.0761L95.0758 58.8366L96.2071 58.1851Z" fill="#236743"/>
<path opacity="0.32" d="M91.5262 55.5183L94.4052 57.1573L93.2739 57.8089L90.3949 56.1699L91.5262 55.5183Z" fill="#236743"/>
<path opacity="0.32" d="M87.0349 52.959L89.9139 54.6047L88.7827 55.2563L85.8969 53.6173L87.0349 52.959Z" fill="#236743"/>
<path opacity="0.32" d="M113.746 65.198L119.639 68.5499L118.508 69.2015L112.614 65.8496L113.746 65.198Z" fill="#236743"/>
<path opacity="0.32" d="M63.2507 60.1801L55.081 55.5317L53.9497 56.19L62.1194 60.8317L63.2507 60.1801Z" fill="#236743"/>
<path opacity="0.32" d="M64.0907 57.6947L57.6688 54.0405L56.5375 54.6988L62.9594 58.3463L64.0907 57.6947Z" fill="#236743"/>
<path opacity="0.32" d="M64.9036 55.1959L60.2633 52.5493L59.1252 53.2076L63.7723 55.8475L64.9036 55.1959Z" fill="#236743"/>
<path opacity="0.32" d="M69.6049 54.9071L62.851 51.0581L61.7197 51.7164L68.4736 55.5587L69.6049 54.9071Z" fill="#236743"/>
<path opacity="0.32" d="M70.0791 52.2133L65.4388 49.5667L64.3075 50.2249L68.9478 52.8648L70.0791 52.2133Z" fill="#236743"/>
<path opacity="0.32" d="M73.92 51.4274L68.0264 48.0754L66.8951 48.7337L72.7819 52.0789L73.92 51.4274Z" fill="#236743"/>
<path opacity="0.32" d="M73.8252 48.4113L70.6142 46.5842L69.4829 47.2425L72.6939 49.0629L73.8252 48.4113Z" fill="#236743"/>
<path opacity="0.32" d="M79.4275 48.633L73.202 45.093L72.0707 45.7513L78.2894 49.2846L79.4275 48.633Z" fill="#236743"/>
<path opacity="0.32" d="M81.6833 46.9537L75.7965 43.6018L74.6584 44.2601L80.552 47.6053L81.6833 46.9537Z" fill="#236743"/>
<path opacity="0.32" d="M109.444 62.7527L111.95 64.1768L110.819 64.8283L108.313 63.4043L109.444 62.7527Z" fill="#236743"/>
<path opacity="0.32" d="M102.006 58.5142L107.642 61.725L106.511 62.3766L100.875 59.1725L102.006 58.5142Z" fill="#236743"/>
<path opacity="0.32" d="M109.051 47.0747L118.562 52.4888L117.431 53.1404L107.913 47.7263L109.051 47.0747Z" fill="#236743"/>
<path opacity="0.32" d="M102.534 43.3667L106.28 45.5028L105.149 46.1544L101.396 44.0183L102.534 43.3667Z" fill="#236743"/>
</g>
<path opacity="0.3" d="M97.4938 78.5269C98.7816 74.8783 90.1013 68.5455 78.1056 64.3823C66.11 60.2191 55.3416 59.802 54.0538 63.4507C52.7659 67.0993 61.4463 73.4321 73.4419 77.5953C85.4376 81.7585 96.206 82.1756 97.4938 78.5269Z" fill="#0F054C"/>
<path d="M84.4199 50.1714L84.2641 46.4231L83.3903 44.2266L82.828 46.0402L84.4199 50.1714Z" fill="#DD821F"/>
<path d="M44.7097 50.8903L44.5607 47.2092C44.5607 47.2092 47.6903 50.3126 47.6903 50.3798C47.6903 50.447 44.7097 50.8903 44.7097 50.8903Z" fill="#FFD85A"/>
<path d="M64.8291 61.7991C75.7965 61.5371 84.4742 56.0088 84.2642 46.4097C84.0542 36.8107 74.9565 29.2471 63.9891 29.509C53.0216 29.771 44.3439 37.7646 44.5539 47.3636C44.7639 56.9626 53.8616 62.0745 64.8291 61.7991Z" fill="#FFD85A"/>
<path d="M64.9743 68.0345C75.9406 67.7744 84.6428 59.7796 84.4112 50.1775C84.1797 40.5754 75.102 33.0022 64.1357 33.2623C53.1694 33.5223 44.4672 41.5172 44.6987 51.1192C44.9303 60.7213 54.008 68.2945 64.9743 68.0345Z" fill="#FFD85A"/>
<path d="M78.4181 38.1206C80.221 39.5938 81.6877 41.4299 82.7213 43.5074C83.7548 45.5848 84.3315 47.8563 84.4132 50.1714C84.6436 59.7704 75.9455 67.764 64.9781 68.026C59.8844 68.195 54.8996 66.5402 50.9352 63.3642L78.4181 38.1206Z" fill="#DD821F"/>
<path d="M64.9556 67.2553C75.4319 67.0069 83.7453 59.3702 83.5241 50.1984C83.3029 41.0265 74.6309 33.7927 64.1545 34.0411C53.6782 34.2896 45.3647 41.9262 45.586 51.0981C45.8072 60.2699 54.4792 67.5038 64.9556 67.2553Z" fill="#F9BF30"/>
<path d="M64.8765 63.9783C73.2882 63.7788 79.9634 57.649 79.7858 50.2871C79.6082 42.9251 72.6452 37.1188 64.2335 37.3182C55.8218 37.5177 49.1466 43.6475 49.3242 51.0094C49.5017 58.3714 56.4647 64.1777 64.8765 63.9783Z" fill="#F2B42A"/>
<path d="M49.3297 51.0043C49.3297 50.7021 49.3297 50.3998 49.3297 50.0975C50.0071 57.023 56.7813 62.3566 64.8223 62.1886C72.8633 62.0207 79.3462 56.358 79.7255 49.4258C79.7255 49.7281 79.7797 50.0236 79.7865 50.3326C79.9626 57.7216 73.29 63.8276 64.8833 64.0292C56.4765 64.2307 49.5058 58.3732 49.3297 51.0043Z" fill="#FFD85A"/>
<path d="M61.6451 51.7701L64.7613 48.9019C67.769 49.5736 73.378 50.8432 77.8558 51.891C77.2365 53.5967 76.255 55.1505 74.9776 56.4474C73.7001 57.7442 72.1567 58.7538 70.4516 59.4077L61.6451 51.7701Z" fill="#FFD85A"/>
<path d="M66.5565 60.4557C66.0619 60.5162 65.5539 60.5565 65.0458 60.5699C61.5926 60.6832 58.2106 59.5788 55.501 57.4531L60.6019 52.751L66.5565 60.4557Z" fill="#FFD85A"/>
<path d="M68.1145 45.8252L74.0013 40.4514C75.9793 42.1643 77.7474 44.0586 78.2284 46.5843L68.1145 45.8252Z" fill="#FFD85A"/>
<path d="M65.0323 38.9064C56.6187 39.108 49.9462 45.2341 50.1291 52.603C50.1646 54.0609 50.47 55.4999 51.03 56.8483C49.9684 55.0791 49.3829 53.0691 49.3297 51.011C49.1536 43.622 55.8262 37.516 64.2329 37.3144C70.9394 37.1532 76.7245 40.8142 78.8787 46.0469C76.2978 41.6807 71.0342 38.7654 65.0323 38.9064Z" fill="#DD821F"/>
<path d="M84.2642 46.4233C84.3969 47.692 84.3398 48.9731 84.0948 50.2253C83.6545 48.8146 82.74 44.6029 82.74 44.6029L81.2294 41.2442L79.9355 40.2232L77.8016 38.685L77.6255 33.8552C79.6062 35.3275 81.2303 37.22 82.3788 39.3945C83.5274 41.5689 84.1716 43.9703 84.2642 46.4233Z" fill="#DD821F"/>
<path d="M45.8342 45.9328L45.753 44.9453C45.753 44.9127 45.7465 44.8804 45.7339 44.8502C45.7213 44.8201 45.7028 44.7927 45.6795 44.7696C45.6563 44.7465 45.6286 44.7282 45.5982 44.7157C45.5678 44.7032 45.5352 44.6968 45.5023 44.6968H45.4278C45.3949 44.6985 45.3626 44.7066 45.3328 44.7207C45.3031 44.7348 45.2764 44.7546 45.2544 44.779C45.2324 44.8033 45.2154 44.8317 45.2045 44.8626C45.1936 44.8934 45.1889 44.9261 45.1907 44.9588L45.272 45.9462C45.272 46.0121 45.2984 46.0753 45.3454 46.1219C45.3924 46.1685 45.4562 46.1947 45.5226 46.1947H45.5971C45.6301 46.193 45.6623 46.1849 45.6921 46.1708C45.7218 46.1567 45.7485 46.1369 45.7705 46.1125C45.7925 46.0882 45.8095 46.0598 45.8204 46.0289C45.8314 45.9981 45.8361 45.9654 45.8342 45.9328Z" fill="#DD821F"/>
<path d="M47.5819 42.1375L47.4803 40.3574C47.4812 40.3198 47.4745 40.2824 47.4606 40.2474C47.4467 40.2124 47.4259 40.1805 47.3994 40.1536C47.3729 40.1267 47.3412 40.1053 47.3062 40.0907C47.2713 40.0761 47.2337 40.0686 47.1958 40.0686H47.0196C46.9817 40.0703 46.9444 40.0795 46.9101 40.0957C46.8757 40.112 46.845 40.1348 46.8198 40.163C46.7945 40.1912 46.7752 40.2241 46.763 40.2598C46.7508 40.2955 46.7459 40.3333 46.7487 40.3709L46.8503 42.151C46.8494 42.1886 46.8561 42.226 46.87 42.261C46.8839 42.296 46.9047 42.3279 46.9312 42.3548C46.9577 42.3817 46.9894 42.4031 47.0243 42.4177C47.0593 42.4323 47.0969 42.4398 47.1348 42.4398H47.3109C47.3489 42.4381 47.3862 42.4289 47.4205 42.4127C47.4548 42.3965 47.4855 42.3736 47.5108 42.3454C47.536 42.3172 47.5553 42.2843 47.5676 42.2486C47.5798 42.2129 47.5846 42.1751 47.5819 42.1375Z" fill="#DD821F"/>
<path d="M50.0003 38.8327L49.8987 37.1064C49.8987 37.022 49.8654 36.941 49.8059 36.8807C49.7464 36.8204 49.6654 36.7857 49.5803 36.7839H49.2755C49.1904 36.7891 49.1108 36.8272 49.0538 36.8901C48.9968 36.9529 48.9669 37.0354 48.9706 37.1198L49.0723 38.8461C49.0722 38.9305 49.1056 39.0115 49.1651 39.0718C49.2246 39.1321 49.3056 39.1668 49.3906 39.1686H49.6955C49.7805 39.1634 49.8601 39.1253 49.9172 39.0625C49.9742 38.9996 50.004 38.9171 50.0003 38.8327Z" fill="#DD821F"/>
<path d="M53.6178 36.1591L53.5161 34.07C53.5162 33.9856 53.4828 33.9046 53.4233 33.8443C53.3638 33.7841 53.2828 33.7493 53.1978 33.7476H52.8929C52.8079 33.7528 52.7283 33.7909 52.6712 33.8537C52.6142 33.9165 52.5844 33.999 52.5881 34.0834L52.6965 36.1725C52.6964 36.2569 52.7298 36.3379 52.7893 36.3981C52.8488 36.4584 52.9298 36.4932 53.0149 36.4949H53.3197C53.4035 36.4881 53.4814 36.4492 53.537 36.3866C53.5926 36.324 53.6215 36.2424 53.6178 36.1591Z" fill="#DD821F"/>
<path d="M57.2623 34.4059L57.1471 32.0011C57.1471 31.9168 57.1138 31.8358 57.0543 31.7755C56.9948 31.7152 56.9138 31.6805 56.8287 31.6787H56.5239C56.4388 31.6839 56.3592 31.722 56.3022 31.7848C56.2452 31.8476 56.2153 31.9301 56.2191 32.0146L56.3342 34.4194C56.3342 34.5037 56.3675 34.5847 56.4271 34.645C56.4866 34.7053 56.5676 34.74 56.6526 34.7418H56.9575C57.0425 34.7366 57.1221 34.6985 57.1791 34.6357C57.2361 34.5729 57.266 34.4904 57.2623 34.4059Z" fill="#DD821F"/>
<path d="M60.9204 33.338L60.8052 31.0273C60.8052 30.9429 60.7719 30.8619 60.7124 30.8016C60.6529 30.7413 60.5719 30.7066 60.4868 30.7048H60.182C60.0969 30.71 60.0173 30.7481 59.9603 30.811C59.9033 30.8738 59.8734 30.9563 59.8771 31.0407L59.9923 33.3514C59.9923 33.4358 60.0256 33.5168 60.0851 33.5771C60.1447 33.6374 60.2256 33.6721 60.3107 33.6739H60.6155C60.7006 33.6687 60.7802 33.6306 60.8372 33.5678C60.8942 33.5049 60.9241 33.4224 60.9204 33.338Z" fill="#DD821F"/>
<path d="M64.5987 32.9752L64.4835 30.6242C64.4836 30.5398 64.4502 30.4588 64.3907 30.3985C64.3312 30.3383 64.2502 30.3035 64.1652 30.3018H63.8603C63.7753 30.307 63.6957 30.3451 63.6386 30.4079C63.5816 30.4707 63.5518 30.5532 63.5555 30.6376L63.6706 32.9887C63.6706 33.073 63.704 33.154 63.7635 33.2143C63.823 33.2746 63.904 33.3093 63.989 33.3111H64.2939C64.3789 33.3059 64.4585 33.2678 64.5155 33.205C64.5726 33.1422 64.6024 33.0597 64.5987 32.9752Z" fill="#DD821F"/>
<path d="M68.2839 33.0491L68.1687 30.8459C68.1687 30.7615 68.1354 30.6805 68.0759 30.6202C68.0164 30.5599 67.9354 30.5252 67.8503 30.5234H67.5455C67.4604 30.5286 67.3808 30.5667 67.3238 30.6296C67.2668 30.6924 67.237 30.7749 67.2407 30.8593L67.3558 33.0626C67.3558 33.1469 67.3891 33.2279 67.4487 33.2882C67.5082 33.3485 67.5892 33.3833 67.6742 33.385H67.9791C68.0641 33.3798 68.1437 33.3417 68.2007 33.2789C68.2577 33.2161 68.2876 33.1336 68.2839 33.0491Z" fill="#DD821F"/>
<path d="M71.9894 33.8551L71.881 31.7257C71.881 31.6414 71.8477 31.5604 71.7882 31.5001C71.7287 31.4398 71.6477 31.4051 71.5626 31.4033H71.2578C71.1727 31.4085 71.0931 31.4466 71.0361 31.5094C70.9791 31.5723 70.9492 31.6548 70.9529 31.7392L71.0613 33.8686C71.0613 33.9529 71.0946 34.0339 71.1542 34.0942C71.2137 34.1545 71.2947 34.1892 71.3797 34.191H71.6846C71.7696 34.1858 71.8492 34.1477 71.9062 34.0849C71.9632 34.0221 71.9931 33.9396 71.9894 33.8551Z" fill="#DD821F"/>
<path d="M75.7219 35.6486L75.6067 33.3378C75.6067 33.2534 75.5734 33.1724 75.5139 33.1122C75.4544 33.0519 75.3734 33.0171 75.2883 33.0154H74.9835C74.8984 33.0206 74.8188 33.0587 74.7618 33.1215C74.7048 33.1843 74.6749 33.2668 74.6787 33.3512L74.7938 35.662C74.7938 35.7464 74.8271 35.8274 74.8866 35.8876C74.9462 35.9479 75.0271 35.9827 75.1122 35.9844H75.417C75.5021 35.9792 75.5817 35.9411 75.6387 35.8783C75.6957 35.8155 75.7256 35.733 75.7219 35.6486Z" fill="#DD821F"/>
<path opacity="0.5" d="M163.226 125.082C164.357 121.878 156.738 116.318 146.207 112.663C135.677 109.009 126.224 108.643 125.093 111.847C123.962 115.051 131.582 120.611 142.112 124.266C152.642 127.92 162.096 128.286 163.226 125.082Z" fill="#0F054C"/>
<path d="M151.749 100.195L151.613 96.8969L150.841 94.969L150.353 96.5677L151.749 100.195Z" fill="#DD821F"/>
<path d="M116.875 100.82L116.746 97.5889C116.746 97.5889 119.504 100.316 119.504 100.383C119.504 100.45 116.875 100.82 116.875 100.82Z" fill="#FFD85A"/>
<path d="M134.549 110.412C144.175 110.184 151.817 105.327 151.613 96.9036C151.41 88.4802 143.437 81.8301 133.811 82.0584C124.185 82.2868 116.516 89.2997 116.747 97.7232C116.977 106.147 124.923 110.641 134.549 110.412Z" fill="#FFD85A"/>
<path d="M134.258 116.427C143.888 116.236 151.557 109.245 151.387 100.813C151.216 92.3804 143.272 85.6993 133.642 85.8903C124.012 86.0813 116.343 93.072 116.513 101.504C116.683 109.937 124.628 116.618 134.258 116.427Z" fill="#FFD85A"/>
<path d="M146.478 89.6086C148.062 90.9028 149.35 92.5158 150.258 94.3409C151.165 96.166 151.671 98.1615 151.742 100.195C151.945 108.625 144.29 115.645 134.678 115.873C130.206 116.023 125.829 114.57 122.349 111.782L146.478 89.6086Z" fill="#DD821F"/>
<path d="M134.66 115.189C143.857 114.97 151.155 108.266 150.961 100.215C150.767 92.1627 143.154 85.8123 133.956 86.0304C124.759 86.2485 117.461 92.9526 117.655 101.004C117.849 109.056 125.462 115.407 134.66 115.189Z" fill="#F9BF30"/>
<path d="M134.59 112.314C141.973 112.139 147.832 106.757 147.676 100.293C147.52 93.8281 141.409 88.7296 134.026 88.9047C126.642 89.0797 120.784 94.4621 120.94 100.927C121.095 107.391 127.207 112.49 134.59 112.314Z" fill="#F2B42A"/>
<path d="M120.94 100.921C120.94 100.652 120.94 100.39 120.94 100.121C121.556 106.2 127.463 110.869 134.542 110.714C141.621 110.56 147.298 105.596 147.616 99.4897C147.616 99.7517 147.664 100.02 147.671 100.282C147.826 106.744 141.967 112.132 134.583 112.306C127.199 112.481 121.096 107.389 120.94 100.921Z" fill="#FFD85A"/>
<path d="M131.751 101.592L134.461 99.0732C137.103 99.6644 142.021 100.779 145.977 101.693C145.437 103.189 144.579 104.552 143.462 105.691C142.344 106.83 140.994 107.719 139.501 108.296L131.751 101.592Z" fill="#FFD85A"/>
<path d="M136.066 109.19C135.633 109.243 135.186 109.277 134.712 109.29C131.679 109.388 128.71 108.417 126.332 106.55L130.81 102.439L136.066 109.19Z" fill="#FFD85A"/>
<path d="M137.435 96.373L142.604 91.6306C144.338 93.1353 145.896 94.7945 146.316 97.0045L137.435 96.373Z" fill="#FFD85A"/>
<path d="M134.732 90.3006C127.348 90.4752 121.488 95.8558 121.644 102.325C121.676 103.605 121.944 104.869 122.437 106.053C121.506 104.499 120.992 102.734 120.946 100.927C120.791 94.4653 126.65 89.078 134.034 88.9034C139.921 88.7623 145.002 91.9799 146.905 96.5611C144.615 92.739 140.002 90.1729 134.732 90.3006Z" fill="#DD821F"/>
<path d="M151.613 96.897C151.732 98.0176 151.681 99.1496 151.464 100.256C151.078 99.0196 150.245 95.3184 150.245 95.3184L148.89 92.3762L147.786 91.4761L145.916 90.1326L145.76 85.894C147.5 87.181 148.928 88.8365 149.94 90.7399C150.953 92.6434 151.524 94.7468 151.613 96.897Z" fill="#DD821F"/>
<path d="M117.871 96.4671L117.797 95.6006C117.797 95.5429 117.774 95.4875 117.733 95.4462C117.693 95.4048 117.638 95.3807 117.58 95.3789H117.512C117.454 95.3824 117.399 95.4082 117.36 95.4508C117.321 95.4935 117.3 95.5496 117.302 95.6073L117.377 96.4738C117.376 96.5315 117.399 96.5869 117.44 96.6282C117.48 96.6696 117.535 96.6937 117.593 96.6955H117.661C117.719 96.692 117.774 96.6662 117.813 96.6236C117.852 96.5809 117.873 96.5248 117.871 96.4671Z" fill="#DD821F"/>
<path d="M119.409 93.1353L119.321 91.5769C119.321 91.511 119.294 91.4478 119.247 91.4012C119.2 91.3546 119.137 91.3284 119.07 91.3284H118.914C118.881 91.3301 118.849 91.3382 118.819 91.3523C118.79 91.3664 118.763 91.3862 118.741 91.4106C118.719 91.4349 118.702 91.4633 118.691 91.4941C118.68 91.525 118.675 91.5577 118.677 91.5903L118.765 93.1488C118.765 93.2147 118.792 93.2779 118.839 93.3245C118.886 93.3711 118.949 93.3973 119.016 93.3973H119.172C119.205 93.3956 119.237 93.3874 119.267 93.3733C119.296 93.3592 119.323 93.3394 119.345 93.3151C119.367 93.2908 119.384 93.2624 119.395 93.2315C119.406 93.2007 119.411 93.168 119.409 93.1353Z" fill="#DD821F"/>
<path d="M121.529 90.2335L121.441 88.7221C121.441 88.6472 121.411 88.5755 121.358 88.5226C121.304 88.4697 121.232 88.4399 121.156 88.4399H120.892C120.855 88.4417 120.818 88.4507 120.784 88.4665C120.751 88.4823 120.72 88.5045 120.695 88.532C120.67 88.5594 120.65 88.5915 120.638 88.6265C120.625 88.6614 120.619 88.6984 120.621 88.7355L120.709 90.2469C120.709 90.3217 120.739 90.3935 120.793 90.4464C120.846 90.4993 120.918 90.529 120.994 90.529H121.258C121.295 90.5273 121.332 90.5183 121.366 90.5025C121.4 90.4867 121.43 90.4644 121.455 90.437C121.481 90.4095 121.5 90.3774 121.513 90.3425C121.525 90.3076 121.531 90.2705 121.529 90.2335Z" fill="#DD821F"/>
<path d="M124.706 87.8889L124.611 86.0551C124.611 85.9802 124.581 85.9085 124.528 85.8556C124.475 85.8027 124.402 85.7729 124.327 85.7729H124.063C124.025 85.7747 123.989 85.7837 123.955 85.7995C123.921 85.8153 123.89 85.8375 123.865 85.865C123.84 85.8924 123.821 85.9246 123.808 85.9595C123.795 85.9944 123.79 86.0315 123.792 86.0685L123.886 87.9023C123.886 87.9771 123.916 88.0489 123.97 88.1018C124.023 88.1547 124.095 88.1844 124.171 88.1844H124.435C124.473 88.1827 124.509 88.1737 124.543 88.1579C124.577 88.1421 124.607 88.1199 124.632 88.0924C124.658 88.0649 124.677 88.0328 124.69 87.9979C124.702 87.963 124.708 87.9259 124.706 87.8889Z" fill="#DD821F"/>
<path d="M127.904 86.3507L127.802 84.2348C127.802 84.1599 127.772 84.0882 127.719 84.0353C127.665 83.9824 127.593 83.9526 127.517 83.9526H127.253C127.216 83.9544 127.179 83.9634 127.145 83.9792C127.111 83.995 127.081 84.0172 127.056 84.0447C127.031 84.0721 127.011 84.1042 126.999 84.1392C126.986 84.1741 126.98 84.2111 126.982 84.2482L127.084 86.3642C127.084 86.439 127.114 86.5107 127.167 86.5636C127.221 86.6166 127.293 86.6463 127.368 86.6463H127.633C127.67 86.6446 127.707 86.6355 127.741 86.6197C127.774 86.6039 127.805 86.5817 127.83 86.5542C127.855 86.5268 127.875 86.4947 127.887 86.4597C127.9 86.4248 127.905 86.3878 127.904 86.3507Z" fill="#DD821F"/>
<path d="M131.121 85.4104L131.02 83.3952C131.02 83.3203 130.99 83.2486 130.936 83.1957C130.883 83.1428 130.811 83.113 130.735 83.113H130.471C130.434 83.1148 130.397 83.1238 130.363 83.1396C130.329 83.1554 130.299 83.1776 130.274 83.2051C130.249 83.2325 130.229 83.2646 130.216 83.2996C130.204 83.3345 130.198 83.3715 130.2 83.4086L130.302 85.4238C130.302 85.4986 130.332 85.5704 130.385 85.6233C130.438 85.6762 130.511 85.7059 130.586 85.7059H130.85C130.888 85.7042 130.924 85.6952 130.958 85.6794C130.992 85.6636 131.023 85.6413 131.048 85.6139C131.073 85.5864 131.092 85.5543 131.105 85.5194C131.118 85.4845 131.123 85.4474 131.121 85.4104Z" fill="#DD821F"/>
<path d="M134.346 85.0946L134.244 83.0324C134.244 82.9575 134.214 82.8858 134.161 82.8329C134.108 82.78 134.035 82.7502 133.96 82.7502H133.695C133.658 82.752 133.621 82.761 133.588 82.7768C133.554 82.7926 133.523 82.8148 133.498 82.8423C133.473 82.8697 133.454 82.9018 133.441 82.9368C133.428 82.9717 133.423 83.0087 133.425 83.0458L133.526 85.108C133.526 85.1828 133.556 85.2546 133.609 85.3075C133.663 85.3604 133.735 85.3901 133.811 85.3901H134.075C134.112 85.3884 134.149 85.3794 134.183 85.3636C134.217 85.3478 134.247 85.3255 134.272 85.2981C134.297 85.2706 134.317 85.2385 134.329 85.2036C134.342 85.1687 134.348 85.1316 134.346 85.0946Z" fill="#DD821F"/>
<path d="M137.584 85.1618L137.516 83.2272C137.516 83.1524 137.486 83.0806 137.433 83.0277C137.379 82.9748 137.307 82.9451 137.232 82.9451H136.967C136.93 82.9468 136.893 82.9558 136.859 82.9716C136.826 82.9874 136.795 83.0097 136.77 83.0371C136.745 83.0646 136.725 83.0967 136.713 83.1316C136.7 83.1665 136.695 83.2036 136.696 83.2406L136.798 85.1752C136.798 85.2122 136.805 85.2489 136.82 85.2832C136.834 85.3174 136.855 85.3485 136.881 85.3747C136.908 85.4009 136.939 85.4217 136.974 85.4358C137.008 85.45 137.045 85.4573 137.083 85.4573H137.347C137.416 85.4458 137.479 85.4093 137.522 85.3547C137.566 85.3001 137.588 85.2314 137.584 85.1618Z" fill="#DD821F"/>
<path d="M140.836 85.8603L140.741 83.9862C140.741 83.9114 140.711 83.8396 140.657 83.7867C140.604 83.7338 140.532 83.7041 140.456 83.7041H140.192C140.155 83.7058 140.118 83.7148 140.084 83.7306C140.05 83.7464 140.02 83.7687 139.995 83.7961C139.969 83.8236 139.95 83.8557 139.937 83.8906C139.925 83.9255 139.919 83.9626 139.921 83.9997L140.016 85.8738C140.016 85.9486 140.046 86.0204 140.099 86.0733C140.153 86.1262 140.225 86.1559 140.3 86.1559H140.565C140.602 86.1542 140.639 86.1452 140.672 86.1294C140.706 86.1136 140.737 86.0913 140.762 86.0639C140.787 86.0364 140.806 86.0043 140.819 85.9694C140.832 85.9345 140.837 85.8974 140.836 85.8603Z" fill="#DD821F"/>
<path d="M144.107 87.4389L144.006 85.4237C144.006 85.3489 143.976 85.2771 143.922 85.2242C143.869 85.1713 143.797 85.1416 143.721 85.1416H143.457C143.42 85.1433 143.383 85.1523 143.349 85.1681C143.315 85.1839 143.285 85.2062 143.26 85.2336C143.235 85.2611 143.215 85.2932 143.203 85.3281C143.19 85.363 143.184 85.4001 143.186 85.4372L143.288 87.4523C143.288 87.5272 143.318 87.5989 143.371 87.6518C143.424 87.7047 143.497 87.7345 143.572 87.7345H143.836C143.874 87.7328 143.911 87.7237 143.944 87.7079C143.978 87.6921 144.009 87.6699 144.034 87.6424C144.059 87.615 144.078 87.5829 144.091 87.5479C144.104 87.513 144.109 87.476 144.107 87.4389Z" fill="#DD821F"/>
</g>
<defs>
<linearGradient id="paint0_linear_110_587" x1="81.1857" y1="114.863" x2="9.05663" y2="116.261" gradientUnits="userSpaceOnUse">
<stop stop-color="#5761D7"/>
<stop offset="0.04" stop-color="#5C66D9"/>
<stop offset="0.09" stop-color="#6A73DF"/>
<stop offset="0.14" stop-color="#8289E8"/>
<stop offset="0.19" stop-color="#A3A7F5"/>
<stop offset="0.22" stop-color="#BCBEFF"/>
</linearGradient>
<linearGradient id="paint1_linear_110_587" x1="59.7726" y1="77.8526" x2="32.3989" y2="120.749" gradientUnits="userSpaceOnUse">
<stop stop-color="#C0BFF6"/>
<stop offset="0.29" stop-color="#C5C4F7"/>
<stop offset="0.64" stop-color="#D3D2F9"/>
<stop offset="1" stop-color="#E9E9FD"/>
</linearGradient>
<linearGradient id="paint2_linear_110_587" x1="125.762" y1="0.918136" x2="51.4589" y2="128.576" gradientUnits="userSpaceOnUse">
<stop stop-color="#C0BFF6"/>
<stop offset="0.12" stop-color="#D0CFF9"/>
<stop offset="0.26" stop-color="#E9E9FD"/>
<stop offset="0.51" stop-color="#C0BFF6"/>
<stop offset="0.62" stop-color="#D0CFF9"/>
<stop offset="0.75" stop-color="#E9E9FD"/>
<stop offset="1" stop-color="#C0BFF6"/>
</linearGradient>
<clipPath id="clip0_110_587">
<rect width="168" height="138" fill="white"/>
</clipPath>
</defs>
</svg>
