<svg width="428" height="926" viewBox="0 0 428 926" fill="none" xmlns="http://www.w3.org/2000/svg">
<g clip-path="url(#clip0_121_52)">
<rect width="428" height="926" fill="#111621"/>
<rect width="428" height="62" fill="#0D0E12"/>
<path d="M402.898 30.2084H382.102C381.424 30.2084 380.875 30.7578 380.875 31.4355V31.5646C380.875 32.2423 381.424 32.7917 382.102 32.7917H402.898C403.576 32.7917 404.125 32.2423 404.125 31.5646V31.4355C404.125 30.7578 403.576 30.2084 402.898 30.2084Z" fill="white"/>
<path d="M402.898 36.6666H382.102C381.424 36.6666 380.875 37.216 380.875 37.8937V38.0229C380.875 38.7006 381.424 39.25 382.102 39.25H402.898C403.576 39.25 404.125 38.7006 404.125 38.0229V37.8937C404.125 37.216 403.576 36.6666 402.898 36.6666Z" fill="white"/>
<path d="M402.898 23.75H382.102C381.424 23.75 380.875 24.2994 380.875 24.9771V25.1063C380.875 25.7839 381.424 26.3333 382.102 26.3333H402.898C403.576 26.3333 404.125 25.7839 404.125 25.1063V24.9771C404.125 24.2994 403.576 23.75 402.898 23.75Z" fill="white"/>
<path d="M40.0246 36.6498L37.117 31.6244L31.4455 41.4359H25.9295L37.117 22.0641L48.3046 41.4359H32.4266L35.1906 36.6498H40.0246ZM46.6653 24.6845H51.4515V36.6498H59.8272L57.0632 41.4359H46.6653V24.6845ZM67.3414 24.6845H75.7171L72.9531 29.4706H67.3414C64.9483 29.4706 63.7518 30.6671 63.7518 33.0602C63.7518 35.4533 64.9483 36.6498 67.3414 36.6498H69.7345V30.6671H74.5206V41.4359H67.3414C61.7576 41.4359 58.9657 38.644 58.9657 33.0602C58.9657 27.4764 61.7576 24.6845 67.3414 24.6845ZM75.406 33.0602C75.406 27.4764 78.1979 24.6845 83.7817 24.6845C89.3656 24.6845 92.1575 27.4764 92.1575 33.0602C92.1575 38.644 89.3656 41.4359 83.7817 41.4359C78.1979 41.4359 75.406 38.644 75.406 33.0602ZM83.7817 29.4706C81.3887 29.4706 80.1921 30.6671 80.1921 33.0602C80.1921 35.4533 81.3887 36.6498 83.7817 36.6498C86.1748 36.6498 87.3713 35.4533 87.3713 33.0602C87.3713 30.6671 86.1748 29.4706 83.7817 29.4706ZM94.6103 29.4706L91.8464 24.6845H103.213C106.803 24.6845 108.598 26.4793 108.598 30.0689C108.598 33.6585 106.803 35.4533 103.213 35.4533H97.829V40.2394L93.0429 42.6324V30.6671H103.213C103.612 30.6671 103.812 30.4677 103.812 30.0689C103.812 29.67 103.612 29.4706 103.213 29.4706H94.6103ZM109.148 33.0602C109.148 27.4764 111.94 24.6845 117.524 24.6845C123.108 24.6845 125.9 27.4764 125.9 33.0602C125.9 38.644 123.108 41.4359 117.524 41.4359C111.94 41.4359 109.148 38.644 109.148 33.0602ZM117.524 29.4706C115.131 29.4706 113.934 30.6671 113.934 33.0602C113.934 35.4533 115.131 36.6498 117.524 36.6498C119.917 36.6498 121.114 35.4533 121.114 33.0602C121.114 30.6671 119.917 29.4706 117.524 29.4706ZM134.993 29.4706V40.2394L130.207 42.6324V29.4706H126.39L123.626 24.6845H141.574L138.81 29.4706H134.993Z" fill="#45AC75"/>
<rect y="62" width="428" height="864" fill="#0A0B0E"/>
<path d="M256.119 296.88V298.368H251.399V301.648H255.079V303.136H251.399V308H249.575V296.88H256.119ZM261.633 308.144C260.801 308.144 260.049 307.957 259.377 307.584C258.705 307.2 258.177 306.667 257.793 305.984C257.409 305.291 257.217 304.491 257.217 303.584C257.217 302.688 257.415 301.893 257.809 301.2C258.204 300.507 258.743 299.973 259.425 299.6C260.108 299.227 260.871 299.04 261.713 299.04C262.556 299.04 263.319 299.227 264.001 299.6C264.684 299.973 265.223 300.507 265.617 301.2C266.012 301.893 266.209 302.688 266.209 303.584C266.209 304.48 266.007 305.275 265.601 305.968C265.196 306.661 264.641 307.2 263.937 307.584C263.244 307.957 262.476 308.144 261.633 308.144ZM261.633 306.56C262.103 306.56 262.54 306.448 262.945 306.224C263.361 306 263.697 305.664 263.953 305.216C264.209 304.768 264.337 304.224 264.337 303.584C264.337 302.944 264.215 302.405 263.969 301.968C263.724 301.52 263.399 301.184 262.993 300.96C262.588 300.736 262.151 300.624 261.681 300.624C261.212 300.624 260.775 300.736 260.369 300.96C259.975 301.184 259.66 301.52 259.425 301.968C259.191 302.405 259.073 302.944 259.073 303.584C259.073 304.533 259.313 305.269 259.793 305.792C260.284 306.304 260.897 306.56 261.633 306.56ZM269.837 300.464C270.103 300.016 270.455 299.669 270.893 299.424C271.341 299.168 271.869 299.04 272.477 299.04V300.928H272.013C271.298 300.928 270.754 301.109 270.381 301.472C270.018 301.835 269.837 302.464 269.837 303.36V308H268.013V299.184H269.837V300.464ZM277.705 299.04C278.388 299.04 278.99 299.179 279.513 299.456C280.046 299.723 280.462 300.059 280.761 300.464V299.184H282.601V308.144C282.601 308.955 282.43 309.675 282.089 310.304C281.748 310.944 281.252 311.445 280.601 311.808C279.961 312.171 279.193 312.352 278.297 312.352C277.102 312.352 276.11 312.069 275.321 311.504C274.532 310.949 274.084 310.192 273.977 309.232H275.785C275.924 309.691 276.217 310.059 276.665 310.336C277.124 310.624 277.668 310.768 278.297 310.768C279.033 310.768 279.625 310.544 280.073 310.096C280.532 309.648 280.761 308.997 280.761 308.144V306.672C280.452 307.088 280.03 307.44 279.497 307.728C278.974 308.005 278.377 308.144 277.705 308.144C276.937 308.144 276.233 307.952 275.593 307.568C274.964 307.173 274.462 306.629 274.089 305.936C273.726 305.232 273.545 304.437 273.545 303.552C273.545 302.667 273.726 301.883 274.089 301.2C274.462 300.517 274.964 299.989 275.593 299.616C276.233 299.232 276.937 299.04 277.705 299.04ZM280.761 303.584C280.761 302.976 280.633 302.448 280.377 302C280.132 301.552 279.806 301.211 279.401 300.976C278.996 300.741 278.558 300.624 278.089 300.624C277.62 300.624 277.182 300.741 276.777 300.976C276.372 301.2 276.041 301.536 275.785 301.984C275.54 302.421 275.417 302.944 275.417 303.552C275.417 304.16 275.54 304.693 275.785 305.152C276.041 305.611 276.372 305.963 276.777 306.208C277.193 306.443 277.63 306.56 278.089 306.56C278.558 306.56 278.996 306.443 279.401 306.208C279.806 305.973 280.132 305.632 280.377 305.184C280.633 304.725 280.761 304.192 280.761 303.584ZM293.077 303.376C293.077 303.707 293.056 304.005 293.013 304.272H286.277C286.33 304.976 286.592 305.541 287.061 305.968C287.53 306.395 288.106 306.608 288.789 306.608C289.77 306.608 290.464 306.197 290.869 305.376H292.837C292.57 306.187 292.085 306.853 291.381 307.376C290.688 307.888 289.824 308.144 288.789 308.144C287.946 308.144 287.189 307.957 286.517 307.584C285.856 307.2 285.333 306.667 284.949 305.984C284.576 305.291 284.389 304.491 284.389 303.584C284.389 302.677 284.57 301.883 284.933 301.2C285.306 300.507 285.824 299.973 286.485 299.6C287.157 299.227 287.925 299.04 288.789 299.04C289.621 299.04 290.362 299.221 291.013 299.584C291.664 299.947 292.17 300.459 292.533 301.12C292.896 301.771 293.077 302.523 293.077 303.376ZM291.173 302.8C291.162 302.128 290.922 301.589 290.453 301.184C289.984 300.779 289.402 300.576 288.709 300.576C288.08 300.576 287.541 300.779 287.093 301.184C286.645 301.579 286.378 302.117 286.293 302.8H291.173ZM297 300.672V305.552C297 305.883 297.075 306.123 297.224 306.272C297.384 306.411 297.651 306.48 298.024 306.48H299.144V308H297.704C296.883 308 296.253 307.808 295.816 307.424C295.379 307.04 295.16 306.416 295.16 305.552V300.672H294.12V299.184H295.16V296.992H297V299.184H299.144V300.672H297ZM312.757 300.192C312.757 300.757 312.624 301.291 312.357 301.792C312.091 302.293 311.664 302.704 311.077 303.024C310.491 303.333 309.739 303.488 308.821 303.488H306.805V308H304.981V296.88H308.821C309.675 296.88 310.395 297.029 310.981 297.328C311.579 297.616 312.021 298.011 312.309 298.512C312.608 299.013 312.757 299.573 312.757 300.192ZM308.821 302C309.515 302 310.032 301.845 310.373 301.536C310.715 301.216 310.885 300.768 310.885 300.192C310.885 298.976 310.197 298.368 308.821 298.368H306.805V302H308.821ZM313.889 303.552C313.889 302.667 314.07 301.883 314.433 301.2C314.806 300.517 315.308 299.989 315.937 299.616C316.577 299.232 317.281 299.04 318.049 299.04C318.742 299.04 319.345 299.179 319.857 299.456C320.38 299.723 320.796 300.059 321.105 300.464V299.184H322.945V308H321.105V306.688C320.796 307.104 320.374 307.451 319.841 307.728C319.308 308.005 318.7 308.144 318.017 308.144C317.26 308.144 316.566 307.952 315.937 307.568C315.308 307.173 314.806 306.629 314.433 305.936C314.07 305.232 313.889 304.437 313.889 303.552ZM321.105 303.584C321.105 302.976 320.977 302.448 320.721 302C320.476 301.552 320.15 301.211 319.745 300.976C319.34 300.741 318.902 300.624 318.433 300.624C317.964 300.624 317.526 300.741 317.121 300.976C316.716 301.2 316.385 301.536 316.129 301.984C315.884 302.421 315.761 302.944 315.761 303.552C315.761 304.16 315.884 304.693 316.129 305.152C316.385 305.611 316.716 305.963 317.121 306.208C317.537 306.443 317.974 306.56 318.433 306.56C318.902 306.56 319.34 306.443 319.745 306.208C320.15 305.973 320.476 305.632 320.721 305.184C320.977 304.725 321.105 304.192 321.105 303.584ZM328.541 308.144C327.847 308.144 327.223 308.021 326.669 307.776C326.125 307.52 325.693 307.179 325.373 306.752C325.053 306.315 324.882 305.829 324.861 305.296H326.749C326.781 305.669 326.957 305.984 327.277 306.24C327.607 306.485 328.018 306.608 328.509 306.608C329.021 306.608 329.415 306.512 329.693 306.32C329.981 306.117 330.125 305.861 330.125 305.552C330.125 305.221 329.965 304.976 329.645 304.816C329.335 304.656 328.839 304.48 328.157 304.288C327.495 304.107 326.957 303.931 326.541 303.76C326.125 303.589 325.762 303.328 325.453 302.976C325.154 302.624 325.005 302.16 325.005 301.584C325.005 301.115 325.143 300.688 325.421 300.304C325.698 299.909 326.093 299.6 326.605 299.376C327.127 299.152 327.725 299.04 328.397 299.04C329.399 299.04 330.205 299.296 330.813 299.808C331.431 300.309 331.762 300.997 331.805 301.872H329.981C329.949 301.477 329.789 301.163 329.501 300.928C329.213 300.693 328.823 300.576 328.333 300.576C327.853 300.576 327.485 300.667 327.229 300.848C326.973 301.029 326.845 301.269 326.845 301.568C326.845 301.803 326.93 302 327.101 302.16C327.271 302.32 327.479 302.448 327.725 302.544C327.97 302.629 328.333 302.741 328.813 302.88C329.453 303.051 329.975 303.227 330.381 303.408C330.797 303.579 331.154 303.835 331.453 304.176C331.751 304.517 331.906 304.971 331.917 305.536C331.917 306.037 331.778 306.485 331.501 306.88C331.223 307.275 330.829 307.584 330.317 307.808C329.815 308.032 329.223 308.144 328.541 308.144ZM337.088 308.144C336.394 308.144 335.77 308.021 335.216 307.776C334.672 307.52 334.24 307.179 333.92 306.752C333.6 306.315 333.429 305.829 333.408 305.296H335.296C335.328 305.669 335.504 305.984 335.824 306.24C336.154 306.485 336.565 306.608 337.056 306.608C337.568 306.608 337.962 306.512 338.24 306.32C338.528 306.117 338.672 305.861 338.672 305.552C338.672 305.221 338.512 304.976 338.192 304.816C337.882 304.656 337.386 304.48 336.704 304.288C336.042 304.107 335.504 303.931 335.088 303.76C334.672 303.589 334.309 303.328 334 302.976C333.701 302.624 333.552 302.16 333.552 301.584C333.552 301.115 333.69 300.688 333.968 300.304C334.245 299.909 334.64 299.6 335.152 299.376C335.674 299.152 336.272 299.04 336.944 299.04C337.946 299.04 338.752 299.296 339.36 299.808C339.978 300.309 340.309 300.997 340.352 301.872H338.528C338.496 301.477 338.336 301.163 338.048 300.928C337.76 300.693 337.37 300.576 336.88 300.576C336.4 300.576 336.032 300.667 335.776 300.848C335.52 301.029 335.392 301.269 335.392 301.568C335.392 301.803 335.477 302 335.648 302.16C335.818 302.32 336.026 302.448 336.272 302.544C336.517 302.629 336.88 302.741 337.36 302.88C338 303.051 338.522 303.227 338.928 303.408C339.344 303.579 339.701 303.835 340 304.176C340.298 304.517 340.453 304.971 340.464 305.536C340.464 306.037 340.325 306.485 340.048 306.88C339.77 307.275 339.376 307.584 338.864 307.808C338.362 308.032 337.77 308.144 337.088 308.144ZM354.274 299.184L351.538 308H349.618L347.842 301.488L346.066 308H344.146L341.394 299.184H343.25L345.09 306.272L346.962 299.184H348.866L350.658 306.24L352.482 299.184H354.274ZM359.462 308.144C358.63 308.144 357.878 307.957 357.206 307.584C356.534 307.2 356.006 306.667 355.622 305.984C355.238 305.291 355.046 304.491 355.046 303.584C355.046 302.688 355.243 301.893 355.638 301.2C356.032 300.507 356.571 299.973 357.254 299.6C357.936 299.227 358.699 299.04 359.542 299.04C360.384 299.04 361.147 299.227 361.83 299.6C362.512 299.973 363.051 300.507 363.446 301.2C363.84 301.893 364.038 302.688 364.038 303.584C364.038 304.48 363.835 305.275 363.43 305.968C363.024 306.661 362.47 307.2 361.766 307.584C361.072 307.957 360.304 308.144 359.462 308.144ZM359.462 306.56C359.931 306.56 360.368 306.448 360.774 306.224C361.19 306 361.526 305.664 361.782 305.216C362.038 304.768 362.166 304.224 362.166 303.584C362.166 302.944 362.043 302.405 361.798 301.968C361.552 301.52 361.227 301.184 360.822 300.96C360.416 300.736 359.979 300.624 359.51 300.624C359.04 300.624 358.603 300.736 358.198 300.96C357.803 301.184 357.488 301.52 357.254 301.968C357.019 302.405 356.902 302.944 356.902 303.584C356.902 304.533 357.142 305.269 357.622 305.792C358.112 306.304 358.726 306.56 359.462 306.56ZM367.665 300.464C367.931 300.016 368.283 299.669 368.721 299.424C369.169 299.168 369.697 299.04 370.305 299.04V300.928H369.841C369.126 300.928 368.582 301.109 368.209 301.472C367.846 301.835 367.665 302.464 367.665 303.36V308H365.841V299.184H367.665V300.464ZM371.373 303.552C371.373 302.667 371.555 301.883 371.917 301.2C372.291 300.517 372.792 299.989 373.421 299.616C374.061 299.232 374.771 299.04 375.549 299.04C376.125 299.04 376.691 299.168 377.245 299.424C377.811 299.669 378.259 300 378.589 300.416V296.16H380.429V308H378.589V306.672C378.291 307.099 377.875 307.451 377.341 307.728C376.819 308.005 376.216 308.144 375.533 308.144C374.765 308.144 374.061 307.952 373.421 307.568C372.792 307.173 372.291 306.629 371.917 305.936C371.555 305.232 371.373 304.437 371.373 303.552ZM378.589 303.584C378.589 302.976 378.461 302.448 378.205 302C377.96 301.552 377.635 301.211 377.229 300.976C376.824 300.741 376.387 300.624 375.917 300.624C375.448 300.624 375.011 300.741 374.605 300.976C374.2 301.2 373.869 301.536 373.613 301.984C373.368 302.421 373.245 302.944 373.245 303.552C373.245 304.16 373.368 304.693 373.613 305.152C373.869 305.611 374.2 305.963 374.605 306.208C375.021 306.443 375.459 306.56 375.917 306.56C376.387 306.56 376.824 306.443 377.229 306.208C377.635 305.973 377.96 305.632 378.205 305.184C378.461 304.725 378.589 304.192 378.589 303.584Z" fill="#B4B4B4"/>
<rect x="25" y="142" width="378" height="53" rx="4" fill="white"/>
<rect x="25" y="227" width="378" height="53" rx="4" fill="white"/>
<rect x="113" y="410" width="202" height="53" rx="4" fill="#45AC75"/>
<path d="M48.4524 162.49V170.464C48.4524 171.412 48.6984 172.126 49.1904 172.606C49.6944 173.086 50.3904 173.326 51.2784 173.326C52.1784 173.326 52.8744 173.086 53.3664 172.606C53.8704 172.126 54.1224 171.412 54.1224 170.464V162.49H56.1744V170.428C56.1744 171.448 55.9524 172.312 55.5084 173.02C55.0644 173.728 54.4704 174.256 53.7264 174.604C52.9824 174.952 52.1604 175.126 51.2604 175.126C50.3604 175.126 49.5384 174.952 48.7944 174.604C48.0624 174.256 47.4804 173.728 47.0484 173.02C46.6164 172.312 46.4004 171.448 46.4004 170.428V162.49H48.4524ZM62.4461 175.162C61.6661 175.162 60.9641 175.024 60.3401 174.748C59.7281 174.46 59.2421 174.076 58.8821 173.596C58.5221 173.104 58.3301 172.558 58.3061 171.958H60.4301C60.4661 172.378 60.6641 172.732 61.0241 173.02C61.3961 173.296 61.8581 173.434 62.4101 173.434C62.9861 173.434 63.4301 173.326 63.7421 173.11C64.0661 172.882 64.2281 172.594 64.2281 172.246C64.2281 171.874 64.0481 171.598 63.6881 171.418C63.3401 171.238 62.7821 171.04 62.0141 170.824C61.2701 170.62 60.6641 170.422 60.1961 170.23C59.7281 170.038 59.3201 169.744 58.9721 169.348C58.6361 168.952 58.4681 168.43 58.4681 167.782C58.4681 167.254 58.6241 166.774 58.9361 166.342C59.2481 165.898 59.6921 165.55 60.2681 165.298C60.8561 165.046 61.5281 164.92 62.2841 164.92C63.4121 164.92 64.3181 165.208 65.0021 165.784C65.6981 166.348 66.0701 167.122 66.1181 168.106H64.0661C64.0301 167.662 63.8501 167.308 63.5261 167.044C63.2021 166.78 62.7641 166.648 62.2121 166.648C61.6721 166.648 61.2581 166.75 60.9701 166.954C60.6821 167.158 60.5381 167.428 60.5381 167.764C60.5381 168.028 60.6341 168.25 60.8261 168.43C61.0181 168.61 61.2521 168.754 61.5281 168.862C61.8041 168.958 62.2121 169.084 62.7521 169.24C63.4721 169.432 64.0601 169.63 64.5161 169.834C64.9841 170.026 65.3861 170.314 65.7221 170.698C66.0581 171.082 66.2321 171.592 66.2441 172.228C66.2441 172.792 66.0881 173.296 65.7761 173.74C65.4641 174.184 65.0201 174.532 64.4441 174.784C63.8801 175.036 63.2141 175.162 62.4461 175.162ZM77.5513 169.798C77.5513 170.17 77.5273 170.506 77.4793 170.806H69.9013C69.9613 171.598 70.2553 172.234 70.7833 172.714C71.3113 173.194 71.9593 173.434 72.7273 173.434C73.8313 173.434 74.6113 172.972 75.0673 172.048H77.2813C76.9813 172.96 76.4353 173.71 75.6433 174.298C74.8633 174.874 73.8913 175.162 72.7273 175.162C71.7793 175.162 70.9273 174.952 70.1713 174.532C69.4273 174.1 68.8393 173.5 68.4073 172.732C67.9873 171.952 67.7773 171.052 67.7773 170.032C67.7773 169.012 67.9813 168.118 68.3893 167.35C68.8093 166.57 69.3913 165.97 70.1353 165.55C70.8913 165.13 71.7553 164.92 72.7273 164.92C73.6633 164.92 74.4973 165.124 75.2293 165.532C75.9613 165.94 76.5313 166.516 76.9393 167.26C77.3473 167.992 77.5513 168.838 77.5513 169.798ZM75.4093 169.15C75.3973 168.394 75.1273 167.788 74.5993 167.332C74.0713 166.876 73.4173 166.648 72.6373 166.648C71.9293 166.648 71.3233 166.876 70.8193 167.332C70.3153 167.776 70.0153 168.382 69.9193 169.15H75.4093ZM81.6227 166.522C81.9227 166.018 82.3187 165.628 82.8107 165.352C83.3147 165.064 83.9087 164.92 84.5927 164.92V167.044H84.0707C83.2667 167.044 82.6547 167.248 82.2347 167.656C81.8267 168.064 81.6227 168.772 81.6227 169.78V175H79.5707V165.082H81.6227V166.522ZM91.4829 164.92C92.2629 164.92 92.9589 165.082 93.5709 165.406C94.1949 165.73 94.6809 166.21 95.0289 166.846C95.3769 167.482 95.5509 168.25 95.5509 169.15V175H93.5169V169.456C93.5169 168.568 93.2949 167.89 92.8509 167.422C92.4069 166.942 91.8009 166.702 91.0329 166.702C90.2649 166.702 89.6529 166.942 89.1969 167.422C88.7529 167.89 88.5309 168.568 88.5309 169.456V175H86.4789V165.082H88.5309V166.216C88.8669 165.808 89.2929 165.49 89.8089 165.262C90.3369 165.034 90.8949 164.92 91.4829 164.92ZM97.4844 169.996C97.4844 169 97.6884 168.118 98.0964 167.35C98.5164 166.582 99.0804 165.988 99.7884 165.568C100.508 165.136 101.3 164.92 102.164 164.92C102.944 164.92 103.622 165.076 104.198 165.388C104.786 165.688 105.254 166.066 105.602 166.522V165.082H107.672V175H105.602V173.524C105.254 173.992 104.78 174.382 104.18 174.694C103.58 175.006 102.896 175.162 102.128 175.162C101.276 175.162 100.496 174.946 99.7884 174.514C99.0804 174.07 98.5164 173.458 98.0964 172.678C97.6884 171.886 97.4844 170.992 97.4844 169.996ZM105.602 170.032C105.602 169.348 105.458 168.754 105.17 168.25C104.894 167.746 104.528 167.362 104.072 167.098C103.616 166.834 103.124 166.702 102.596 166.702C102.068 166.702 101.576 166.834 101.12 167.098C100.664 167.35 100.292 167.728 100.004 168.232C99.7284 168.724 99.5904 169.312 99.5904 169.996C99.5904 170.68 99.7284 171.28 100.004 171.796C100.292 172.312 100.664 172.708 101.12 172.984C101.588 173.248 102.08 173.38 102.596 173.38C103.124 173.38 103.616 173.248 104.072 172.984C104.528 172.72 104.894 172.336 105.17 171.832C105.458 171.316 105.602 170.716 105.602 170.032ZM122.374 164.92C123.154 164.92 123.85 165.082 124.462 165.406C125.086 165.73 125.572 166.21 125.92 166.846C126.28 167.482 126.46 168.25 126.46 169.15V175H124.426V169.456C124.426 168.568 124.204 167.89 123.76 167.422C123.316 166.942 122.71 166.702 121.942 166.702C121.174 166.702 120.562 166.942 120.106 167.422C119.662 167.89 119.44 168.568 119.44 169.456V175H117.406V169.456C117.406 168.568 117.184 167.89 116.74 167.422C116.296 166.942 115.69 166.702 114.922 166.702C114.154 166.702 113.542 166.942 113.086 167.422C112.642 167.89 112.42 168.568 112.42 169.456V175H110.368V165.082H112.42V166.216C112.756 165.808 113.182 165.49 113.698 165.262C114.214 165.034 114.766 164.92 115.354 164.92C116.146 164.92 116.854 165.088 117.478 165.424C118.102 165.76 118.582 166.246 118.918 166.882C119.218 166.282 119.686 165.808 120.322 165.46C120.958 165.1 121.642 164.92 122.374 164.92ZM138.161 169.798C138.161 170.17 138.137 170.506 138.089 170.806H130.511C130.571 171.598 130.865 172.234 131.393 172.714C131.921 173.194 132.569 173.434 133.337 173.434C134.441 173.434 135.221 172.972 135.677 172.048H137.891C137.591 172.96 137.045 173.71 136.253 174.298C135.473 174.874 134.501 175.162 133.337 175.162C132.389 175.162 131.537 174.952 130.781 174.532C130.037 174.1 129.449 173.5 129.017 172.732C128.597 171.952 128.387 171.052 128.387 170.032C128.387 169.012 128.591 168.118 128.999 167.35C129.419 166.57 130.001 165.97 130.745 165.55C131.501 165.13 132.365 164.92 133.337 164.92C134.273 164.92 135.107 165.124 135.839 165.532C136.571 165.94 137.141 166.516 137.549 167.26C137.957 167.992 138.161 168.838 138.161 169.798ZM136.019 169.15C136.007 168.394 135.737 167.788 135.209 167.332C134.681 166.876 134.027 166.648 133.247 166.648C132.539 166.648 131.933 166.876 131.429 167.332C130.925 167.776 130.625 168.382 130.529 169.15H136.019ZM149.158 175.162C148.222 175.162 147.376 174.952 146.62 174.532C145.864 174.1 145.27 173.5 144.838 172.732C144.406 171.952 144.19 171.052 144.19 170.032C144.19 169.024 144.412 168.13 144.856 167.35C145.3 166.57 145.906 165.97 146.674 165.55C147.442 165.13 148.3 164.92 149.248 164.92C150.196 164.92 151.054 165.13 151.822 165.55C152.59 165.97 153.196 166.57 153.64 167.35C154.084 168.13 154.306 169.024 154.306 170.032C154.306 171.04 154.078 171.934 153.622 172.714C153.166 173.494 152.542 174.1 151.75 174.532C150.97 174.952 150.106 175.162 149.158 175.162ZM149.158 173.38C149.686 173.38 150.178 173.254 150.634 173.002C151.102 172.75 151.48 172.372 151.768 171.868C152.056 171.364 152.2 170.752 152.2 170.032C152.2 169.312 152.062 168.706 151.786 168.214C151.51 167.71 151.144 167.332 150.688 167.08C150.232 166.828 149.74 166.702 149.212 166.702C148.684 166.702 148.192 166.828 147.736 167.08C147.292 167.332 146.938 167.71 146.674 168.214C146.41 168.706 146.278 169.312 146.278 170.032C146.278 171.1 146.548 171.928 147.088 172.516C147.64 173.092 148.33 173.38 149.158 173.38ZM158.386 166.522C158.686 166.018 159.082 165.628 159.574 165.352C160.078 165.064 160.672 164.92 161.356 164.92V167.044H160.834C160.03 167.044 159.418 167.248 158.998 167.656C158.59 168.064 158.386 168.772 158.386 169.78V175H156.334V165.082H158.386V166.522ZM169.97 164.146V167.818H174.29V169.492H169.97V173.326H174.83V175H167.918V162.472H174.83V164.146H169.97ZM184.972 167.62V169.348H177.574V167.62H184.972ZM199.893 164.92C200.673 164.92 201.369 165.082 201.981 165.406C202.605 165.73 203.091 166.21 203.439 166.846C203.799 167.482 203.979 168.25 203.979 169.15V175H201.945V169.456C201.945 168.568 201.723 167.89 201.279 167.422C200.835 166.942 200.229 166.702 199.461 166.702C198.693 166.702 198.081 166.942 197.625 167.422C197.181 167.89 196.959 168.568 196.959 169.456V175H194.925V169.456C194.925 168.568 194.703 167.89 194.259 167.422C193.815 166.942 193.209 166.702 192.441 166.702C191.673 166.702 191.061 166.942 190.605 167.422C190.161 167.89 189.939 168.568 189.939 169.456V175H187.887V165.082H189.939V166.216C190.275 165.808 190.701 165.49 191.217 165.262C191.733 165.034 192.285 164.92 192.873 164.92C193.665 164.92 194.373 165.088 194.997 165.424C195.621 165.76 196.101 166.246 196.437 166.882C196.737 166.282 197.205 165.808 197.841 165.46C198.477 165.1 199.161 164.92 199.893 164.92ZM205.906 169.996C205.906 169 206.11 168.118 206.518 167.35C206.938 166.582 207.502 165.988 208.21 165.568C208.93 165.136 209.722 164.92 210.586 164.92C211.366 164.92 212.044 165.076 212.62 165.388C213.208 165.688 213.676 166.066 214.024 166.522V165.082H216.094V175H214.024V173.524C213.676 173.992 213.202 174.382 212.602 174.694C212.002 175.006 211.318 175.162 210.55 175.162C209.698 175.162 208.918 174.946 208.21 174.514C207.502 174.07 206.938 173.458 206.518 172.678C206.11 171.886 205.906 170.992 205.906 169.996ZM214.024 170.032C214.024 169.348 213.88 168.754 213.592 168.25C213.316 167.746 212.95 167.362 212.494 167.098C212.038 166.834 211.546 166.702 211.018 166.702C210.49 166.702 209.998 166.834 209.542 167.098C209.086 167.35 208.714 167.728 208.426 168.232C208.15 168.724 208.012 169.312 208.012 169.996C208.012 170.68 208.15 171.28 208.426 171.796C208.714 172.312 209.086 172.708 209.542 172.984C210.01 173.248 210.502 173.38 211.018 173.38C211.546 173.38 212.038 173.248 212.494 172.984C212.95 172.72 213.316 172.336 213.592 171.832C213.88 171.316 214.024 170.716 214.024 170.032ZM219.833 163.768C219.461 163.768 219.149 163.642 218.897 163.39C218.645 163.138 218.519 162.826 218.519 162.454C218.519 162.082 218.645 161.77 218.897 161.518C219.149 161.266 219.461 161.14 219.833 161.14C220.193 161.14 220.499 161.266 220.751 161.518C221.003 161.77 221.129 162.082 221.129 162.454C221.129 162.826 221.003 163.138 220.751 163.39C220.499 163.642 220.193 163.768 219.833 163.768ZM220.841 165.082V175H218.789V165.082H220.841ZM225.588 161.68V175H223.536V161.68H225.588Z" fill="#B0ADAD"/>
<path d="M55.3109 251.216C55.3109 251.852 55.1609 252.452 54.8609 253.016C54.5609 253.58 54.0809 254.042 53.4209 254.402C52.7609 254.75 51.9149 254.924 50.8829 254.924H48.6149V260H46.5629V247.49H50.8829C51.8429 247.49 52.6529 247.658 53.3129 247.994C53.9849 248.318 54.4829 248.762 54.8069 249.326C55.1429 249.89 55.3109 250.52 55.3109 251.216ZM50.8829 253.25C51.6629 253.25 52.2449 253.076 52.6289 252.728C53.0129 252.368 53.2049 251.864 53.2049 251.216C53.2049 249.848 52.4309 249.164 50.8829 249.164H48.6149V253.25H50.8829ZM56.584 254.996C56.584 254 56.788 253.118 57.196 252.35C57.616 251.582 58.18 250.988 58.888 250.568C59.608 250.136 60.4 249.92 61.264 249.92C62.044 249.92 62.722 250.076 63.298 250.388C63.886 250.688 64.354 251.066 64.702 251.522V250.082H66.772V260H64.702V258.524C64.354 258.992 63.88 259.382 63.28 259.694C62.68 260.006 61.996 260.162 61.228 260.162C60.376 260.162 59.596 259.946 58.888 259.514C58.18 259.07 57.616 258.458 57.196 257.678C56.788 256.886 56.584 255.992 56.584 254.996ZM64.702 255.032C64.702 254.348 64.558 253.754 64.27 253.25C63.994 252.746 63.628 252.362 63.172 252.098C62.716 251.834 62.224 251.702 61.696 251.702C61.168 251.702 60.676 251.834 60.22 252.098C59.764 252.35 59.392 252.728 59.104 253.232C58.828 253.724 58.69 254.312 58.69 254.996C58.69 255.68 58.828 256.28 59.104 256.796C59.392 257.312 59.764 257.708 60.22 257.984C60.688 258.248 61.18 258.38 61.696 258.38C62.224 258.38 62.716 258.248 63.172 257.984C63.628 257.72 63.994 257.336 64.27 256.832C64.558 256.316 64.702 255.716 64.702 255.032ZM73.0672 260.162C72.2872 260.162 71.5852 260.024 70.9612 259.748C70.3492 259.46 69.8632 259.076 69.5032 258.596C69.1432 258.104 68.9512 257.558 68.9272 256.958H71.0512C71.0872 257.378 71.2852 257.732 71.6452 258.02C72.0172 258.296 72.4792 258.434 73.0312 258.434C73.6072 258.434 74.0512 258.326 74.3632 258.11C74.6872 257.882 74.8492 257.594 74.8492 257.246C74.8492 256.874 74.6692 256.598 74.3092 256.418C73.9612 256.238 73.4032 256.04 72.6352 255.824C71.8912 255.62 71.2852 255.422 70.8172 255.23C70.3492 255.038 69.9412 254.744 69.5932 254.348C69.2572 253.952 69.0892 253.43 69.0892 252.782C69.0892 252.254 69.2452 251.774 69.5572 251.342C69.8692 250.898 70.3132 250.55 70.8892 250.298C71.4772 250.046 72.1492 249.92 72.9052 249.92C74.0332 249.92 74.9392 250.208 75.6232 250.784C76.3192 251.348 76.6912 252.122 76.7392 253.106H74.6872C74.6512 252.662 74.4712 252.308 74.1472 252.044C73.8232 251.78 73.3852 251.648 72.8332 251.648C72.2932 251.648 71.8792 251.75 71.5912 251.954C71.3032 252.158 71.1592 252.428 71.1592 252.764C71.1592 253.028 71.2552 253.25 71.4472 253.43C71.6392 253.61 71.8732 253.754 72.1492 253.862C72.4252 253.958 72.8332 254.084 73.3732 254.24C74.0932 254.432 74.6812 254.63 75.1372 254.834C75.6052 255.026 76.0072 255.314 76.3432 255.698C76.6792 256.082 76.8532 256.592 76.8652 257.228C76.8652 257.792 76.7092 258.296 76.3972 258.74C76.0852 259.184 75.6412 259.532 75.0652 259.784C74.5012 260.036 73.8352 260.162 73.0672 260.162ZM82.6824 260.162C81.9024 260.162 81.2004 260.024 80.5764 259.748C79.9644 259.46 79.4784 259.076 79.1184 258.596C78.7584 258.104 78.5664 257.558 78.5424 256.958H80.6664C80.7024 257.378 80.9004 257.732 81.2604 258.02C81.6324 258.296 82.0944 258.434 82.6464 258.434C83.2224 258.434 83.6664 258.326 83.9784 258.11C84.3024 257.882 84.4644 257.594 84.4644 257.246C84.4644 256.874 84.2844 256.598 83.9244 256.418C83.5764 256.238 83.0184 256.04 82.2504 255.824C81.5064 255.62 80.9004 255.422 80.4324 255.23C79.9644 255.038 79.5564 254.744 79.2084 254.348C78.8724 253.952 78.7044 253.43 78.7044 252.782C78.7044 252.254 78.8604 251.774 79.1724 251.342C79.4844 250.898 79.9284 250.55 80.5044 250.298C81.0924 250.046 81.7644 249.92 82.5204 249.92C83.6484 249.92 84.5544 250.208 85.2384 250.784C85.9344 251.348 86.3064 252.122 86.3544 253.106H84.3024C84.2664 252.662 84.0864 252.308 83.7624 252.044C83.4384 251.78 83.0004 251.648 82.4484 251.648C81.9084 251.648 81.4944 251.75 81.2064 251.954C80.9184 252.158 80.7744 252.428 80.7744 252.764C80.7744 253.028 80.8704 253.25 81.0624 253.43C81.2544 253.61 81.4884 253.754 81.7644 253.862C82.0404 253.958 82.4484 254.084 82.9884 254.24C83.7084 254.432 84.2964 254.63 84.7524 254.834C85.2204 255.026 85.6224 255.314 85.9584 255.698C86.2944 256.082 86.4684 256.592 86.4804 257.228C86.4804 257.792 86.3244 258.296 86.0124 258.74C85.7004 259.184 85.2564 259.532 84.6804 259.784C84.1164 260.036 83.4504 260.162 82.6824 260.162ZM102.018 250.082L98.9397 260H96.7797L94.7817 252.674L92.7837 260H90.6237L87.5277 250.082H89.6157L91.6857 258.056L93.7917 250.082H95.9337L97.9497 258.02L100.002 250.082H102.018ZM107.853 260.162C106.917 260.162 106.071 259.952 105.315 259.532C104.559 259.1 103.965 258.5 103.533 257.732C103.101 256.952 102.885 256.052 102.885 255.032C102.885 254.024 103.107 253.13 103.551 252.35C103.995 251.57 104.601 250.97 105.369 250.55C106.137 250.13 106.995 249.92 107.943 249.92C108.891 249.92 109.749 250.13 110.517 250.55C111.285 250.97 111.891 251.57 112.335 252.35C112.779 253.13 113.001 254.024 113.001 255.032C113.001 256.04 112.773 256.934 112.317 257.714C111.861 258.494 111.237 259.1 110.445 259.532C109.665 259.952 108.801 260.162 107.853 260.162ZM107.853 258.38C108.381 258.38 108.873 258.254 109.329 258.002C109.797 257.75 110.175 257.372 110.463 256.868C110.751 256.364 110.895 255.752 110.895 255.032C110.895 254.312 110.757 253.706 110.481 253.214C110.205 252.71 109.839 252.332 109.383 252.08C108.927 251.828 108.435 251.702 107.907 251.702C107.379 251.702 106.887 251.828 106.431 252.08C105.987 252.332 105.633 252.71 105.369 253.214C105.105 253.706 104.973 254.312 104.973 255.032C104.973 256.1 105.243 256.928 105.783 257.516C106.335 258.092 107.025 258.38 107.853 258.38ZM117.082 251.522C117.382 251.018 117.778 250.628 118.27 250.352C118.774 250.064 119.368 249.92 120.052 249.92V252.044H119.53C118.726 252.044 118.114 252.248 117.694 252.656C117.286 253.064 117.082 253.772 117.082 254.78V260H115.03V250.082H117.082V251.522ZM121.254 254.996C121.254 254 121.458 253.118 121.866 252.35C122.286 251.582 122.85 250.988 123.558 250.568C124.278 250.136 125.076 249.92 125.952 249.92C126.6 249.92 127.236 250.064 127.86 250.352C128.496 250.628 129 251 129.372 251.468V246.68H131.442V260H129.372V258.506C129.036 258.986 128.568 259.382 127.968 259.694C127.38 260.006 126.702 260.162 125.934 260.162C125.07 260.162 124.278 259.946 123.558 259.514C122.85 259.07 122.286 258.458 121.866 257.678C121.458 256.886 121.254 255.992 121.254 254.996ZM129.372 255.032C129.372 254.348 129.228 253.754 128.94 253.25C128.664 252.746 128.298 252.362 127.842 252.098C127.386 251.834 126.894 251.702 126.366 251.702C125.838 251.702 125.346 251.834 124.89 252.098C124.434 252.35 124.062 252.728 123.774 253.232C123.498 253.724 123.36 254.312 123.36 254.996C123.36 255.68 123.498 256.28 123.774 256.796C124.062 257.312 124.434 257.708 124.89 257.984C125.358 258.248 125.85 258.38 126.366 258.38C126.894 258.38 127.386 258.248 127.842 257.984C128.298 257.72 128.664 257.336 128.94 256.832C129.228 256.316 129.372 255.716 129.372 255.032Z" fill="#B0ADAD"/>
<path d="M180.979 108.558H186.039V111H177.899V95.644H180.979V108.558ZM197.544 111.154C196.107 111.154 194.787 110.817 193.584 110.142C192.382 109.467 191.428 108.536 190.724 107.348C190.02 106.145 189.668 104.789 189.668 103.278C189.668 101.782 190.02 100.44 190.724 99.252C191.428 98.0493 192.382 97.1107 193.584 96.436C194.787 95.7613 196.107 95.424 197.544 95.424C198.996 95.424 200.316 95.7613 201.504 96.436C202.707 97.1107 203.653 98.0493 204.342 99.252C205.046 100.44 205.398 101.782 205.398 103.278C205.398 104.789 205.046 106.145 204.342 107.348C203.653 108.536 202.707 109.467 201.504 110.142C200.302 110.817 198.982 111.154 197.544 111.154ZM197.544 108.404C198.468 108.404 199.282 108.199 199.986 107.788C200.69 107.363 201.24 106.761 201.636 105.984C202.032 105.207 202.23 104.305 202.23 103.278C202.23 102.251 202.032 101.357 201.636 100.594C201.24 99.8167 200.69 99.2227 199.986 98.812C199.282 98.4013 198.468 98.196 197.544 98.196C196.62 98.196 195.799 98.4013 195.08 98.812C194.376 99.2227 193.826 99.8167 193.43 100.594C193.034 101.357 192.836 102.251 192.836 103.278C192.836 104.305 193.034 105.207 193.43 105.984C193.826 106.761 194.376 107.363 195.08 107.788C195.799 108.199 196.62 108.404 197.544 108.404ZM220.802 100.264C220.45 99.6187 219.966 99.1273 219.35 98.79C218.734 98.4527 218.015 98.284 217.194 98.284C216.284 98.284 215.478 98.4893 214.774 98.9C214.07 99.3107 213.52 99.8973 213.124 100.66C212.728 101.423 212.53 102.303 212.53 103.3C212.53 104.327 212.728 105.221 213.124 105.984C213.534 106.747 214.099 107.333 214.818 107.744C215.536 108.155 216.372 108.36 217.326 108.36C218.499 108.36 219.46 108.052 220.208 107.436C220.956 106.805 221.447 105.933 221.682 104.818H216.402V102.464H224.718V105.148C224.512 106.219 224.072 107.209 223.398 108.118C222.723 109.027 221.85 109.761 220.78 110.318C219.724 110.861 218.536 111.132 217.216 111.132C215.734 111.132 214.392 110.802 213.19 110.142C212.002 109.467 211.063 108.536 210.374 107.348C209.699 106.16 209.362 104.811 209.362 103.3C209.362 101.789 209.699 100.44 210.374 99.252C211.063 98.0493 212.002 97.118 213.19 96.458C214.392 95.7833 215.727 95.446 217.194 95.446C218.924 95.446 220.428 95.8713 221.704 96.722C222.98 97.558 223.86 98.7387 224.344 100.264H220.802ZM232.497 95.644V111H229.417V95.644H232.497ZM251.094 111H248.014L241.04 100.462V111H237.96V95.622H241.04L248.014 106.182V95.622H251.094V111Z" fill="#45AC75"/>
<rect x="47" y="328" width="16" height="16" rx="3" stroke="#9F9F9F" stroke-width="2"/>
<path d="M79.7177 341L75.9517 336.646V341H74.3557V331.27H75.9517V335.708L79.7317 331.27H81.7337L77.5057 336.142L81.8037 341H79.7177ZM90.285 336.954C90.285 337.243 90.2664 337.505 90.229 337.738H84.335C84.3817 338.354 84.6104 338.849 85.021 339.222C85.4317 339.595 85.9357 339.782 86.533 339.782C87.3917 339.782 87.9984 339.423 88.353 338.704H90.075C89.8417 339.413 89.417 339.997 88.801 340.454C88.1944 340.902 87.4384 341.126 86.533 341.126C85.7957 341.126 85.133 340.963 84.545 340.636C83.9664 340.3 83.509 339.833 83.173 339.236C82.8464 338.629 82.683 337.929 82.683 337.136C82.683 336.343 82.8417 335.647 83.159 335.05C83.4857 334.443 83.9384 333.977 84.517 333.65C85.105 333.323 85.777 333.16 86.533 333.16C87.261 333.16 87.9097 333.319 88.479 333.636C89.0484 333.953 89.4917 334.401 89.809 334.98C90.1264 335.549 90.285 336.207 90.285 336.954ZM88.619 336.45C88.6097 335.862 88.3997 335.391 87.989 335.036C87.5784 334.681 87.0697 334.504 86.463 334.504C85.9124 334.504 85.441 334.681 85.049 335.036C84.657 335.381 84.4237 335.853 84.349 336.45H88.619ZM98.9257 336.954C98.9257 337.243 98.907 337.505 98.8697 337.738H92.9757C93.0223 338.354 93.251 338.849 93.6617 339.222C94.0723 339.595 94.5763 339.782 95.1737 339.782C96.0323 339.782 96.639 339.423 96.9937 338.704H98.7157C98.4823 339.413 98.0577 339.997 97.4417 340.454C96.835 340.902 96.079 341.126 95.1737 341.126C94.4363 341.126 93.7737 340.963 93.1857 340.636C92.607 340.3 92.1497 339.833 91.8137 339.236C91.487 338.629 91.3237 337.929 91.3237 337.136C91.3237 336.343 91.4823 335.647 91.7997 335.05C92.1263 334.443 92.579 333.977 93.1577 333.65C93.7457 333.323 94.4177 333.16 95.1737 333.16C95.9017 333.16 96.5503 333.319 97.1197 333.636C97.689 333.953 98.1323 334.401 98.4497 334.98C98.767 335.549 98.9257 336.207 98.9257 336.954ZM97.2597 336.45C97.2503 335.862 97.0403 335.391 96.6297 335.036C96.219 334.681 95.7103 334.504 95.1037 334.504C94.553 334.504 94.0817 334.681 93.6897 335.036C93.2977 335.381 93.0643 335.853 92.9897 336.45H97.2597ZM102.092 334.42C102.363 334.065 102.732 333.767 103.198 333.524C103.665 333.281 104.192 333.16 104.78 333.16C105.452 333.16 106.064 333.328 106.614 333.664C107.174 333.991 107.613 334.453 107.93 335.05C108.248 335.647 108.406 336.333 108.406 337.108C108.406 337.883 108.248 338.578 107.93 339.194C107.613 339.801 107.174 340.277 106.614 340.622C106.064 340.958 105.452 341.126 104.78 341.126C104.192 341.126 103.67 341.009 103.212 340.776C102.755 340.533 102.382 340.235 102.092 339.88V344.668H100.496V333.286H102.092V334.42ZM106.782 337.108C106.782 336.576 106.67 336.119 106.446 335.736C106.232 335.344 105.942 335.05 105.578 334.854C105.224 334.649 104.841 334.546 104.43 334.546C104.029 334.546 103.646 334.649 103.282 334.854C102.928 335.059 102.638 335.358 102.414 335.75C102.2 336.142 102.092 336.604 102.092 337.136C102.092 337.668 102.2 338.135 102.414 338.536C102.638 338.928 102.928 339.227 103.282 339.432C103.646 339.637 104.029 339.74 104.43 339.74C104.841 339.74 105.224 339.637 105.578 339.432C105.942 339.217 106.232 338.909 106.446 338.508C106.67 338.107 106.782 337.64 106.782 337.108ZM122.959 333.16C123.566 333.16 124.107 333.286 124.583 333.538C125.069 333.79 125.447 334.163 125.717 334.658C125.997 335.153 126.137 335.75 126.137 336.45V341H124.555V336.688C124.555 335.997 124.383 335.47 124.037 335.106C123.692 334.733 123.221 334.546 122.623 334.546C122.026 334.546 121.55 334.733 121.195 335.106C120.85 335.47 120.677 335.997 120.677 336.688V341H119.095V336.688C119.095 335.997 118.923 335.47 118.577 335.106C118.232 334.733 117.761 334.546 117.163 334.546C116.566 334.546 116.09 334.733 115.735 335.106C115.39 335.47 115.217 335.997 115.217 336.688V341H113.621V333.286H115.217V334.168C115.479 333.851 115.81 333.603 116.211 333.426C116.613 333.249 117.042 333.16 117.499 333.16C118.115 333.16 118.666 333.291 119.151 333.552C119.637 333.813 120.01 334.191 120.271 334.686C120.505 334.219 120.869 333.851 121.363 333.58C121.858 333.3 122.39 333.16 122.959 333.16ZM135.238 336.954C135.238 337.243 135.219 337.505 135.182 337.738H129.288C129.335 338.354 129.563 338.849 129.974 339.222C130.385 339.595 130.889 339.782 131.486 339.782C132.345 339.782 132.951 339.423 133.306 338.704H135.028C134.795 339.413 134.37 339.997 133.754 340.454C133.147 340.902 132.391 341.126 131.486 341.126C130.749 341.126 130.086 340.963 129.498 340.636C128.919 340.3 128.462 339.833 128.126 339.236C127.799 338.629 127.636 337.929 127.636 337.136C127.636 336.343 127.795 335.647 128.112 335.05C128.439 334.443 128.891 333.977 129.47 333.65C130.058 333.323 130.73 333.16 131.486 333.16C132.214 333.16 132.863 333.319 133.432 333.636C134.001 333.953 134.445 334.401 134.762 334.98C135.079 335.549 135.238 336.207 135.238 336.954ZM133.572 336.45C133.563 335.862 133.353 335.391 132.942 335.036C132.531 334.681 132.023 334.504 131.416 334.504C130.865 334.504 130.394 334.681 130.002 335.036C129.61 335.381 129.377 335.853 129.302 336.45H133.572ZM143.246 341.126C142.639 341.126 142.093 341.019 141.608 340.804C141.132 340.58 140.754 340.281 140.474 339.908C140.194 339.525 140.044 339.101 140.026 338.634H141.678C141.706 338.961 141.86 339.236 142.14 339.46C142.429 339.675 142.788 339.782 143.218 339.782C143.666 339.782 144.011 339.698 144.254 339.53C144.506 339.353 144.632 339.129 144.632 338.858C144.632 338.569 144.492 338.354 144.212 338.214C143.941 338.074 143.507 337.92 142.91 337.752C142.331 337.593 141.86 337.439 141.496 337.29C141.132 337.141 140.814 336.912 140.544 336.604C140.282 336.296 140.152 335.89 140.152 335.386C140.152 334.975 140.273 334.602 140.516 334.266C140.758 333.921 141.104 333.65 141.552 333.454C142.009 333.258 142.532 333.16 143.12 333.16C143.997 333.16 144.702 333.384 145.234 333.832C145.775 334.271 146.064 334.873 146.102 335.638H144.506C144.478 335.293 144.338 335.017 144.086 334.812C143.834 334.607 143.493 334.504 143.064 334.504C142.644 334.504 142.322 334.583 142.098 334.742C141.874 334.901 141.762 335.111 141.762 335.372C141.762 335.577 141.836 335.75 141.986 335.89C142.135 336.03 142.317 336.142 142.532 336.226C142.746 336.301 143.064 336.399 143.484 336.52C144.044 336.669 144.501 336.823 144.856 336.982C145.22 337.131 145.532 337.355 145.794 337.654C146.055 337.953 146.19 338.349 146.2 338.844C146.2 339.283 146.078 339.675 145.836 340.02C145.593 340.365 145.248 340.636 144.8 340.832C144.361 341.028 143.843 341.126 143.246 341.126ZM148.736 332.264C148.447 332.264 148.204 332.166 148.008 331.97C147.812 331.774 147.714 331.531 147.714 331.242C147.714 330.953 147.812 330.71 148.008 330.514C148.204 330.318 148.447 330.22 148.736 330.22C149.016 330.22 149.254 330.318 149.45 330.514C149.646 330.71 149.744 330.953 149.744 331.242C149.744 331.531 149.646 331.774 149.45 331.97C149.254 332.166 149.016 332.264 148.736 332.264ZM149.52 333.286V341H147.924V333.286H149.52ZM154.723 333.16C155.321 333.16 155.848 333.281 156.305 333.524C156.772 333.757 157.136 334.051 157.397 334.406V333.286H159.007V341.126C159.007 341.835 158.858 342.465 158.559 343.016C158.261 343.576 157.827 344.015 157.257 344.332C156.697 344.649 156.025 344.808 155.241 344.808C154.196 344.808 153.328 344.561 152.637 344.066C151.947 343.581 151.555 342.918 151.461 342.078H153.043C153.165 342.479 153.421 342.801 153.813 343.044C154.215 343.296 154.691 343.422 155.241 343.422C155.885 343.422 156.403 343.226 156.795 342.834C157.197 342.442 157.397 341.873 157.397 341.126V339.838C157.127 340.202 156.758 340.51 156.291 340.762C155.834 341.005 155.311 341.126 154.723 341.126C154.051 341.126 153.435 340.958 152.875 340.622C152.325 340.277 151.886 339.801 151.559 339.194C151.242 338.578 151.083 337.883 151.083 337.108C151.083 336.333 151.242 335.647 151.559 335.05C151.886 334.453 152.325 333.991 152.875 333.664C153.435 333.328 154.051 333.16 154.723 333.16ZM157.397 337.136C157.397 336.604 157.285 336.142 157.061 335.75C156.847 335.358 156.562 335.059 156.207 334.854C155.853 334.649 155.47 334.546 155.059 334.546C154.649 334.546 154.266 334.649 153.911 334.854C153.557 335.05 153.267 335.344 153.043 335.736C152.829 336.119 152.721 336.576 152.721 337.108C152.721 337.64 152.829 338.107 153.043 338.508C153.267 338.909 153.557 339.217 153.911 339.432C154.275 339.637 154.658 339.74 155.059 339.74C155.47 339.74 155.853 339.637 156.207 339.432C156.562 339.227 156.847 338.928 157.061 338.536C157.285 338.135 157.397 337.668 157.397 337.136ZM164.996 333.16C165.602 333.16 166.144 333.286 166.62 333.538C167.105 333.79 167.483 334.163 167.754 334.658C168.024 335.153 168.16 335.75 168.16 336.45V341H166.578V336.688C166.578 335.997 166.405 335.47 166.06 335.106C165.714 334.733 165.243 334.546 164.646 334.546C164.048 334.546 163.572 334.733 163.218 335.106C162.872 335.47 162.7 335.997 162.7 336.688V341H161.104V333.286H162.7V334.168C162.961 333.851 163.292 333.603 163.694 333.426C164.104 333.249 164.538 333.16 164.996 333.16ZM177.266 336.954C177.266 337.243 177.247 337.505 177.21 337.738H171.316C171.362 338.354 171.591 338.849 172.002 339.222C172.412 339.595 172.916 339.782 173.514 339.782C174.372 339.782 174.979 339.423 175.334 338.704H177.056C176.822 339.413 176.398 339.997 175.782 340.454C175.175 340.902 174.419 341.126 173.514 341.126C172.776 341.126 172.114 340.963 171.526 340.636C170.947 340.3 170.49 339.833 170.154 339.236C169.827 338.629 169.664 337.929 169.664 337.136C169.664 336.343 169.822 335.647 170.14 335.05C170.466 334.443 170.919 333.977 171.498 333.65C172.086 333.323 172.758 333.16 173.514 333.16C174.242 333.16 174.89 333.319 175.46 333.636C176.029 333.953 176.472 334.401 176.79 334.98C177.107 335.549 177.266 336.207 177.266 336.954ZM175.6 336.45C175.59 335.862 175.38 335.391 174.97 335.036C174.559 334.681 174.05 334.504 173.444 334.504C172.893 334.504 172.422 334.681 172.03 335.036C171.638 335.381 171.404 335.853 171.33 336.45H175.6ZM178.304 337.108C178.304 336.333 178.463 335.647 178.78 335.05C179.107 334.453 179.545 333.991 180.096 333.664C180.656 333.328 181.277 333.16 181.958 333.16C182.462 333.16 182.957 333.272 183.442 333.496C183.937 333.711 184.329 334 184.618 334.364V330.64H186.228V341H184.618V339.838C184.357 340.211 183.993 340.519 183.526 340.762C183.069 341.005 182.541 341.126 181.944 341.126C181.272 341.126 180.656 340.958 180.096 340.622C179.545 340.277 179.107 339.801 178.78 339.194C178.463 338.578 178.304 337.883 178.304 337.108ZM184.618 337.136C184.618 336.604 184.506 336.142 184.282 335.75C184.067 335.358 183.783 335.059 183.428 334.854C183.073 334.649 182.691 334.546 182.28 334.546C181.869 334.546 181.487 334.649 181.132 334.854C180.777 335.05 180.488 335.344 180.264 335.736C180.049 336.119 179.942 336.576 179.942 337.108C179.942 337.64 180.049 338.107 180.264 338.508C180.488 338.909 180.777 339.217 181.132 339.432C181.496 339.637 181.879 339.74 182.28 339.74C182.691 339.74 183.073 339.637 183.428 339.432C183.783 339.227 184.067 338.928 184.282 338.536C184.506 338.135 184.618 337.668 184.618 337.136ZM192.773 332.264C192.484 332.264 192.241 332.166 192.045 331.97C191.849 331.774 191.751 331.531 191.751 331.242C191.751 330.953 191.849 330.71 192.045 330.514C192.241 330.318 192.484 330.22 192.773 330.22C193.053 330.22 193.291 330.318 193.487 330.514C193.683 330.71 193.781 330.953 193.781 331.242C193.781 331.531 193.683 331.774 193.487 331.97C193.291 332.166 193.053 332.264 192.773 332.264ZM193.557 333.286V341H191.961V333.286H193.557ZM199.545 333.16C200.151 333.16 200.693 333.286 201.169 333.538C201.654 333.79 202.032 334.163 202.303 334.658C202.573 335.153 202.709 335.75 202.709 336.45V341H201.127V336.688C201.127 335.997 200.954 335.47 200.609 335.106C200.263 334.733 199.792 334.546 199.195 334.546C198.597 334.546 198.121 334.733 197.767 335.106C197.421 335.47 197.249 335.997 197.249 336.688V341H195.653V333.286H197.249V334.168C197.51 333.851 197.841 333.603 198.243 333.426C198.653 333.249 199.087 333.16 199.545 333.16Z" fill="#9F9F9F"/>
<path d="M111.788 381.49C113.12 381.49 114.284 381.748 115.28 382.264C116.288 382.768 117.062 383.5 117.602 384.46C118.154 385.408 118.43 386.518 118.43 387.79C118.43 389.062 118.154 390.166 117.602 391.102C117.062 392.038 116.288 392.758 115.28 393.262C114.284 393.754 113.12 394 111.788 394H107.702V381.49H111.788ZM111.788 392.326C113.252 392.326 114.374 391.93 115.154 391.138C115.934 390.346 116.324 389.23 116.324 387.79C116.324 386.338 115.934 385.204 115.154 384.388C114.374 383.572 113.252 383.164 111.788 383.164H109.754V392.326H111.788ZM124.765 394.162C123.829 394.162 122.983 393.952 122.227 393.532C121.471 393.1 120.877 392.5 120.445 391.732C120.013 390.952 119.797 390.052 119.797 389.032C119.797 388.024 120.019 387.13 120.463 386.35C120.907 385.57 121.513 384.97 122.281 384.55C123.049 384.13 123.907 383.92 124.855 383.92C125.803 383.92 126.661 384.13 127.429 384.55C128.197 384.97 128.803 385.57 129.247 386.35C129.691 387.13 129.913 388.024 129.913 389.032C129.913 390.04 129.685 390.934 129.229 391.714C128.773 392.494 128.149 393.1 127.357 393.532C126.577 393.952 125.713 394.162 124.765 394.162ZM124.765 392.38C125.293 392.38 125.785 392.254 126.241 392.002C126.709 391.75 127.087 391.372 127.375 390.868C127.663 390.364 127.807 389.752 127.807 389.032C127.807 388.312 127.669 387.706 127.393 387.214C127.117 386.71 126.751 386.332 126.295 386.08C125.839 385.828 125.347 385.702 124.819 385.702C124.291 385.702 123.799 385.828 123.343 386.08C122.899 386.332 122.545 386.71 122.281 387.214C122.017 387.706 121.885 388.312 121.885 389.032C121.885 390.1 122.155 390.928 122.695 391.516C123.247 392.092 123.937 392.38 124.765 392.38ZM136.946 383.92C137.726 383.92 138.422 384.082 139.034 384.406C139.658 384.73 140.144 385.21 140.492 385.846C140.84 386.482 141.014 387.25 141.014 388.15V394H138.98V388.456C138.98 387.568 138.758 386.89 138.314 386.422C137.87 385.942 137.264 385.702 136.496 385.702C135.728 385.702 135.116 385.942 134.66 386.422C134.216 386.89 133.994 387.568 133.994 388.456V394H131.942V384.082H133.994V385.216C134.33 384.808 134.756 384.49 135.272 384.262C135.8 384.034 136.358 383.92 136.946 383.92ZM143.955 381.49H146.187L144.297 385.774H142.857L143.955 381.49ZM150.385 385.756V391.246C150.385 391.618 150.469 391.888 150.637 392.056C150.817 392.212 151.117 392.29 151.537 392.29H152.797V394H151.177C150.253 394 149.545 393.784 149.053 393.352C148.561 392.92 148.315 392.218 148.315 391.246V385.756H147.145V384.082H148.315V381.616H150.385V384.082H152.797V385.756H150.385ZM164.494 383.92C165.25 383.92 165.922 384.082 166.51 384.406C167.11 384.73 167.578 385.21 167.914 385.846C168.262 386.482 168.436 387.25 168.436 388.15V394H166.402V388.456C166.402 387.568 166.18 386.89 165.736 386.422C165.292 385.942 164.686 385.702 163.918 385.702C163.15 385.702 162.538 385.942 162.082 386.422C161.638 386.89 161.416 387.568 161.416 388.456V394H159.364V380.68H161.416V385.234C161.764 384.814 162.202 384.49 162.73 384.262C163.27 384.034 163.858 383.92 164.494 383.92ZM170.369 388.996C170.369 388 170.573 387.118 170.981 386.35C171.401 385.582 171.965 384.988 172.673 384.568C173.393 384.136 174.185 383.92 175.049 383.92C175.829 383.92 176.507 384.076 177.083 384.388C177.671 384.688 178.139 385.066 178.487 385.522V384.082H180.557V394H178.487V392.524C178.139 392.992 177.665 393.382 177.065 393.694C176.465 394.006 175.781 394.162 175.013 394.162C174.161 394.162 173.381 393.946 172.673 393.514C171.965 393.07 171.401 392.458 170.981 391.678C170.573 390.886 170.369 389.992 170.369 388.996ZM178.487 389.032C178.487 388.348 178.343 387.754 178.055 387.25C177.779 386.746 177.413 386.362 176.957 386.098C176.501 385.834 176.009 385.702 175.481 385.702C174.953 385.702 174.461 385.834 174.005 386.098C173.549 386.35 173.177 386.728 172.889 387.232C172.613 387.724 172.475 388.312 172.475 388.996C172.475 389.68 172.613 390.28 172.889 390.796C173.177 391.312 173.549 391.708 174.005 391.984C174.473 392.248 174.965 392.38 175.481 392.38C176.009 392.38 176.501 392.248 176.957 391.984C177.413 391.72 177.779 391.336 178.055 390.832C178.343 390.316 178.487 389.716 178.487 389.032ZM187.086 392.164L189.894 384.082H192.072L188.292 394H185.844L182.082 384.082H184.278L187.086 392.164ZM202.713 388.798C202.713 389.17 202.689 389.506 202.641 389.806H195.063C195.123 390.598 195.417 391.234 195.945 391.714C196.473 392.194 197.121 392.434 197.889 392.434C198.993 392.434 199.773 391.972 200.229 391.048H202.443C202.143 391.96 201.597 392.71 200.805 393.298C200.025 393.874 199.053 394.162 197.889 394.162C196.941 394.162 196.089 393.952 195.333 393.532C194.589 393.1 194.001 392.5 193.569 391.732C193.149 390.952 192.939 390.052 192.939 389.032C192.939 388.012 193.143 387.118 193.551 386.35C193.971 385.57 194.553 384.97 195.297 384.55C196.053 384.13 196.917 383.92 197.889 383.92C198.825 383.92 199.659 384.124 200.391 384.532C201.123 384.94 201.693 385.516 202.101 386.26C202.509 386.992 202.713 387.838 202.713 388.798ZM200.571 388.15C200.559 387.394 200.289 386.788 199.761 386.332C199.233 385.876 198.579 385.648 197.799 385.648C197.091 385.648 196.485 385.876 195.981 386.332C195.477 386.776 195.177 387.382 195.081 388.15H200.571ZM208.725 388.996C208.725 388 208.929 387.118 209.337 386.35C209.757 385.582 210.321 384.988 211.029 384.568C211.749 384.136 212.541 383.92 213.405 383.92C214.185 383.92 214.863 384.076 215.439 384.388C216.027 384.688 216.495 385.066 216.843 385.522V384.082H218.913V394H216.843V392.524C216.495 392.992 216.021 393.382 215.421 393.694C214.821 394.006 214.137 394.162 213.369 394.162C212.517 394.162 211.737 393.946 211.029 393.514C210.321 393.07 209.757 392.458 209.337 391.678C208.929 390.886 208.725 389.992 208.725 388.996ZM216.843 389.032C216.843 388.348 216.699 387.754 216.411 387.25C216.135 386.746 215.769 386.362 215.313 386.098C214.857 385.834 214.365 385.702 213.837 385.702C213.309 385.702 212.817 385.834 212.361 386.098C211.905 386.35 211.533 386.728 211.245 387.232C210.969 387.724 210.831 388.312 210.831 388.996C210.831 389.68 210.969 390.28 211.245 390.796C211.533 391.312 211.905 391.708 212.361 391.984C212.829 392.248 213.321 392.38 213.837 392.38C214.365 392.38 214.857 392.248 215.313 391.984C215.769 391.72 216.135 391.336 216.411 390.832C216.699 390.316 216.843 389.716 216.843 389.032ZM226.612 383.92C227.392 383.92 228.088 384.082 228.7 384.406C229.324 384.73 229.81 385.21 230.158 385.846C230.506 386.482 230.68 387.25 230.68 388.15V394H228.646V388.456C228.646 387.568 228.424 386.89 227.98 386.422C227.536 385.942 226.93 385.702 226.162 385.702C225.394 385.702 224.782 385.942 224.326 386.422C223.882 386.89 223.66 387.568 223.66 388.456V394H221.608V384.082H223.66V385.216C223.996 384.808 224.422 384.49 224.938 384.262C225.466 384.034 226.024 383.92 226.612 383.92ZM237.289 388.996C237.289 388 237.493 387.118 237.901 386.35C238.321 385.582 238.885 384.988 239.593 384.568C240.313 384.136 241.105 383.92 241.969 383.92C242.749 383.92 243.427 384.076 244.003 384.388C244.591 384.688 245.059 385.066 245.407 385.522V384.082H247.477V394H245.407V392.524C245.059 392.992 244.585 393.382 243.985 393.694C243.385 394.006 242.701 394.162 241.933 394.162C241.081 394.162 240.301 393.946 239.593 393.514C238.885 393.07 238.321 392.458 237.901 391.678C237.493 390.886 237.289 389.992 237.289 388.996ZM245.407 389.032C245.407 388.348 245.263 387.754 244.975 387.25C244.699 386.746 244.333 386.362 243.877 386.098C243.421 385.834 242.929 385.702 242.401 385.702C241.873 385.702 241.381 385.834 240.925 386.098C240.469 386.35 240.097 386.728 239.809 387.232C239.533 387.724 239.395 388.312 239.395 388.996C239.395 389.68 239.533 390.28 239.809 390.796C240.097 391.312 240.469 391.708 240.925 391.984C241.393 392.248 241.885 392.38 242.401 392.38C242.929 392.38 243.421 392.248 243.877 391.984C244.333 391.72 244.699 391.336 244.975 390.832C245.263 390.316 245.407 389.716 245.407 389.032ZM249.488 389.032C249.488 388.012 249.692 387.118 250.1 386.35C250.52 385.57 251.096 384.97 251.828 384.55C252.56 384.13 253.4 383.92 254.348 383.92C255.548 383.92 256.538 384.208 257.318 384.784C258.11 385.348 258.644 386.158 258.92 387.214H256.706C256.526 386.722 256.238 386.338 255.842 386.062C255.446 385.786 254.948 385.648 254.348 385.648C253.508 385.648 252.836 385.948 252.332 386.548C251.84 387.136 251.594 387.964 251.594 389.032C251.594 390.1 251.84 390.934 252.332 391.534C252.836 392.134 253.508 392.434 254.348 392.434C255.536 392.434 256.322 391.912 256.706 390.868H258.92C258.632 391.876 258.092 392.68 257.3 393.28C256.508 393.868 255.524 394.162 254.348 394.162C253.4 394.162 252.56 393.952 251.828 393.532C251.096 393.1 250.52 392.5 250.1 391.732C249.692 390.952 249.488 390.052 249.488 389.032ZM260.281 389.032C260.281 388.012 260.485 387.118 260.893 386.35C261.313 385.57 261.889 384.97 262.621 384.55C263.353 384.13 264.193 383.92 265.141 383.92C266.341 383.92 267.331 384.208 268.111 384.784C268.903 385.348 269.437 386.158 269.713 387.214H267.499C267.319 386.722 267.031 386.338 266.635 386.062C266.239 385.786 265.741 385.648 265.141 385.648C264.301 385.648 263.629 385.948 263.125 386.548C262.633 387.136 262.387 387.964 262.387 389.032C262.387 390.1 262.633 390.934 263.125 391.534C263.629 392.134 264.301 392.434 265.141 392.434C266.329 392.434 267.115 391.912 267.499 390.868H269.713C269.425 391.876 268.885 392.68 268.093 393.28C267.301 393.868 266.317 394.162 265.141 394.162C264.193 394.162 263.353 393.952 262.621 393.532C261.889 393.1 261.313 392.5 260.893 391.732C260.485 390.952 260.281 390.052 260.281 389.032ZM276.06 394.162C275.124 394.162 274.278 393.952 273.522 393.532C272.766 393.1 272.172 392.5 271.74 391.732C271.308 390.952 271.092 390.052 271.092 389.032C271.092 388.024 271.314 387.13 271.758 386.35C272.202 385.57 272.808 384.97 273.576 384.55C274.344 384.13 275.202 383.92 276.15 383.92C277.098 383.92 277.956 384.13 278.724 384.55C279.492 384.97 280.098 385.57 280.542 386.35C280.986 387.13 281.208 388.024 281.208 389.032C281.208 390.04 280.98 390.934 280.524 391.714C280.068 392.494 279.444 393.1 278.652 393.532C277.872 393.952 277.008 394.162 276.06 394.162ZM276.06 392.38C276.588 392.38 277.08 392.254 277.536 392.002C278.004 391.75 278.382 391.372 278.67 390.868C278.958 390.364 279.102 389.752 279.102 389.032C279.102 388.312 278.964 387.706 278.688 387.214C278.412 386.71 278.046 386.332 277.59 386.08C277.134 385.828 276.642 385.702 276.114 385.702C275.586 385.702 275.094 385.828 274.638 386.08C274.194 386.332 273.84 386.71 273.576 387.214C273.312 387.706 273.18 388.312 273.18 389.032C273.18 390.1 273.45 390.928 273.99 391.516C274.542 392.092 275.232 392.38 276.06 392.38ZM292.219 384.082V394H290.167V392.83C289.843 393.238 289.417 393.562 288.889 393.802C288.373 394.03 287.821 394.144 287.233 394.144C286.453 394.144 285.751 393.982 285.127 393.658C284.515 393.334 284.029 392.854 283.669 392.218C283.321 391.582 283.147 390.814 283.147 389.914V384.082H285.181V389.608C285.181 390.496 285.403 391.18 285.847 391.66C286.291 392.128 286.897 392.362 287.665 392.362C288.433 392.362 289.039 392.128 289.483 391.66C289.939 391.18 290.167 390.496 290.167 389.608V384.082H292.219ZM299.93 383.92C300.71 383.92 301.406 384.082 302.018 384.406C302.642 384.73 303.128 385.21 303.476 385.846C303.824 386.482 303.998 387.25 303.998 388.15V394H301.964V388.456C301.964 387.568 301.742 386.89 301.298 386.422C300.854 385.942 300.248 385.702 299.48 385.702C298.712 385.702 298.1 385.942 297.644 386.422C297.2 386.89 296.978 387.568 296.978 388.456V394H294.926V384.082H296.978V385.216C297.314 384.808 297.74 384.49 298.256 384.262C298.784 384.034 299.342 383.92 299.93 383.92ZM309.01 385.756V391.246C309.01 391.618 309.094 391.888 309.262 392.056C309.442 392.212 309.742 392.29 310.162 392.29H311.422V394H309.802C308.878 394 308.17 393.784 307.678 393.352C307.186 392.92 306.94 392.218 306.94 391.246V385.756H305.77V384.082H306.94V381.616H309.01V384.082H311.422V385.756H309.01ZM316.679 381.31C317.903 381.31 318.881 381.646 319.613 382.318C320.357 382.99 320.729 383.908 320.729 385.072C320.729 386.284 320.345 387.196 319.577 387.808C318.809 388.42 317.789 388.726 316.517 388.726L316.445 390.148H314.663L314.573 387.322H315.167C316.331 387.322 317.219 387.166 317.831 386.854C318.455 386.542 318.767 385.948 318.767 385.072C318.767 384.436 318.581 383.938 318.209 383.578C317.849 383.218 317.345 383.038 316.697 383.038C316.049 383.038 315.539 383.212 315.167 383.56C314.795 383.908 314.609 384.394 314.609 385.018H312.683C312.683 384.298 312.845 383.656 313.169 383.092C313.493 382.528 313.955 382.09 314.555 381.778C315.167 381.466 315.875 381.31 316.679 381.31ZM315.527 394.126C315.155 394.126 314.843 394 314.591 393.748C314.339 393.496 314.213 393.184 314.213 392.812C314.213 392.44 314.339 392.128 314.591 391.876C314.843 391.624 315.155 391.498 315.527 391.498C315.887 391.498 316.193 391.624 316.445 391.876C316.697 392.128 316.823 392.44 316.823 392.812C316.823 393.184 316.697 393.496 316.445 393.748C316.193 394 315.887 394.126 315.527 394.126Z" fill="white"/>
<path d="M184.969 443L182.089 437.996H180.523V443H178.471V430.49H182.791C183.751 430.49 184.561 430.658 185.221 430.994C185.893 431.33 186.391 431.78 186.715 432.344C187.051 432.908 187.219 433.538 187.219 434.234C187.219 435.05 186.979 435.794 186.499 436.466C186.031 437.126 185.305 437.576 184.321 437.816L187.417 443H184.969ZM180.523 436.358H182.791C183.559 436.358 184.135 436.166 184.519 435.782C184.915 435.398 185.113 434.882 185.113 434.234C185.113 433.586 184.921 433.082 184.537 432.722C184.153 432.35 183.571 432.164 182.791 432.164H180.523V436.358ZM198.934 437.798C198.934 438.17 198.91 438.506 198.862 438.806H191.284C191.344 439.598 191.638 440.234 192.166 440.714C192.694 441.194 193.342 441.434 194.11 441.434C195.214 441.434 195.994 440.972 196.45 440.048H198.664C198.364 440.96 197.818 441.71 197.026 442.298C196.246 442.874 195.274 443.162 194.11 443.162C193.162 443.162 192.31 442.952 191.554 442.532C190.81 442.1 190.222 441.5 189.79 440.732C189.37 439.952 189.16 439.052 189.16 438.032C189.16 437.012 189.364 436.118 189.772 435.35C190.192 434.57 190.774 433.97 191.518 433.55C192.274 433.13 193.138 432.92 194.11 432.92C195.046 432.92 195.88 433.124 196.612 433.532C197.344 433.94 197.914 434.516 198.322 435.26C198.73 435.992 198.934 436.838 198.934 437.798ZM196.792 437.15C196.78 436.394 196.51 435.788 195.982 435.332C195.454 434.876 194.8 434.648 194.02 434.648C193.312 434.648 192.706 434.876 192.202 435.332C191.698 435.776 191.398 436.382 191.302 437.15H196.792ZM204.95 432.92C205.718 432.92 206.396 433.076 206.984 433.388C207.584 433.688 208.052 434.066 208.388 434.522V433.082H210.458V443.162C210.458 444.074 210.266 444.884 209.882 445.592C209.498 446.312 208.94 446.876 208.208 447.284C207.488 447.692 206.624 447.896 205.616 447.896C204.272 447.896 203.156 447.578 202.268 446.942C201.38 446.318 200.876 445.466 200.756 444.386H202.79C202.946 444.902 203.276 445.316 203.78 445.628C204.296 445.952 204.908 446.114 205.616 446.114C206.444 446.114 207.11 445.862 207.614 445.358C208.13 444.854 208.388 444.122 208.388 443.162V441.506C208.04 441.974 207.566 442.37 206.966 442.694C206.378 443.006 205.706 443.162 204.95 443.162C204.086 443.162 203.294 442.946 202.574 442.514C201.866 442.07 201.302 441.458 200.882 440.678C200.474 439.886 200.27 438.992 200.27 437.996C200.27 437 200.474 436.118 200.882 435.35C201.302 434.582 201.866 433.988 202.574 433.568C203.294 433.136 204.086 432.92 204.95 432.92ZM208.388 438.032C208.388 437.348 208.244 436.754 207.956 436.25C207.68 435.746 207.314 435.362 206.858 435.098C206.402 434.834 205.91 434.702 205.382 434.702C204.854 434.702 204.362 434.834 203.906 435.098C203.45 435.35 203.078 435.728 202.79 436.232C202.514 436.724 202.376 437.312 202.376 437.996C202.376 438.68 202.514 439.28 202.79 439.796C203.078 440.312 203.45 440.708 203.906 440.984C204.374 441.248 204.866 441.38 205.382 441.38C205.91 441.38 206.402 441.248 206.858 440.984C207.314 440.72 207.68 440.336 207.956 439.832C208.244 439.316 208.388 438.716 208.388 438.032ZM214.197 431.768C213.825 431.768 213.513 431.642 213.261 431.39C213.009 431.138 212.883 430.826 212.883 430.454C212.883 430.082 213.009 429.77 213.261 429.518C213.513 429.266 213.825 429.14 214.197 429.14C214.557 429.14 214.863 429.266 215.115 429.518C215.367 429.77 215.493 430.082 215.493 430.454C215.493 430.826 215.367 431.138 215.115 431.39C214.863 431.642 214.557 431.768 214.197 431.768ZM215.205 433.082V443H213.153V433.082H215.205ZM221.499 443.162C220.719 443.162 220.017 443.024 219.393 442.748C218.781 442.46 218.295 442.076 217.935 441.596C217.575 441.104 217.383 440.558 217.359 439.958H219.483C219.519 440.378 219.717 440.732 220.077 441.02C220.449 441.296 220.911 441.434 221.463 441.434C222.039 441.434 222.483 441.326 222.795 441.11C223.119 440.882 223.281 440.594 223.281 440.246C223.281 439.874 223.101 439.598 222.741 439.418C222.393 439.238 221.835 439.04 221.067 438.824C220.323 438.62 219.717 438.422 219.249 438.23C218.781 438.038 218.373 437.744 218.025 437.348C217.689 436.952 217.521 436.43 217.521 435.782C217.521 435.254 217.677 434.774 217.989 434.342C218.301 433.898 218.745 433.55 219.321 433.298C219.909 433.046 220.581 432.92 221.337 432.92C222.465 432.92 223.371 433.208 224.055 433.784C224.751 434.348 225.123 435.122 225.171 436.106H223.119C223.083 435.662 222.903 435.308 222.579 435.044C222.255 434.78 221.817 434.648 221.265 434.648C220.725 434.648 220.311 434.75 220.023 434.954C219.735 435.158 219.591 435.428 219.591 435.764C219.591 436.028 219.687 436.25 219.879 436.43C220.071 436.61 220.305 436.754 220.581 436.862C220.857 436.958 221.265 437.084 221.805 437.24C222.525 437.432 223.113 437.63 223.569 437.834C224.037 438.026 224.439 438.314 224.775 438.698C225.111 439.082 225.285 439.592 225.297 440.228C225.297 440.792 225.141 441.296 224.829 441.74C224.517 442.184 224.073 442.532 223.497 442.784C222.933 443.036 222.267 443.162 221.499 443.162ZM229.908 434.756V440.246C229.908 440.618 229.992 440.888 230.16 441.056C230.34 441.212 230.64 441.29 231.06 441.29H232.32V443H230.7C229.776 443 229.068 442.784 228.576 442.352C228.084 441.92 227.838 441.218 227.838 440.246V434.756H226.668V433.082H227.838V430.616H229.908V433.082H232.32V434.756H229.908ZM243.301 437.798C243.301 438.17 243.277 438.506 243.229 438.806H235.651C235.711 439.598 236.005 440.234 236.533 440.714C237.061 441.194 237.709 441.434 238.477 441.434C239.581 441.434 240.361 440.972 240.817 440.048H243.031C242.731 440.96 242.185 441.71 241.393 442.298C240.613 442.874 239.641 443.162 238.477 443.162C237.529 443.162 236.677 442.952 235.921 442.532C235.177 442.1 234.589 441.5 234.157 440.732C233.737 439.952 233.527 439.052 233.527 438.032C233.527 437.012 233.731 436.118 234.139 435.35C234.559 434.57 235.141 433.97 235.885 433.55C236.641 433.13 237.505 432.92 238.477 432.92C239.413 432.92 240.247 433.124 240.979 433.532C241.711 433.94 242.281 434.516 242.689 435.26C243.097 435.992 243.301 436.838 243.301 437.798ZM241.159 437.15C241.147 436.394 240.877 435.788 240.349 435.332C239.821 434.876 239.167 434.648 238.387 434.648C237.679 434.648 237.073 434.876 236.569 435.332C236.065 435.776 235.765 436.382 235.669 437.15H241.159ZM247.373 434.522C247.673 434.018 248.069 433.628 248.561 433.352C249.065 433.064 249.659 432.92 250.343 432.92V435.044H249.821C249.017 435.044 248.405 435.248 247.985 435.656C247.577 436.064 247.373 436.772 247.373 437.78V443H245.321V433.082H247.373V434.522Z" fill="white"/>
</g>
<defs>
<clipPath id="clip0_121_52">
<rect width="428" height="926" fill="white"/>
</clipPath>
</defs>
</svg>
