<svg width="19" height="19" viewBox="0 0 19 19" fill="none" xmlns="http://www.w3.org/2000/svg">
<path fill-rule="evenodd" clip-rule="evenodd" d="M9.5 19C14.7467 19 19 14.7467 19 9.5C19 4.25329 14.7467 0 9.5 0C4.25329 0 0 4.25329 0 9.5C0 14.7467 4.25329 19 9.5 19ZM13.911 5.00359C14.1783 4.97925 14.4431 5.07932 14.647 5.28182L14.6461 5.28132C14.8498 5.48407 14.9759 5.7725 14.9969 6.08329C15.0179 6.39409 14.932 6.70187 14.758 6.93908L9.87315 13.5833C9.78676 13.7008 9.68129 13.7973 9.56277 13.8674C9.44425 13.9374 9.31502 13.9796 9.18246 13.9915C9.05747 14.01 8.93056 13.9982 8.80964 13.9571C8.68871 13.916 8.57637 13.8464 8.4796 13.7526L5.34138 10.7058C5.2464 10.6162 5.16769 10.5055 5.10982 10.3802C5.05195 10.2549 5.01608 10.1175 5.0043 9.97592C4.99251 9.83435 5.00504 9.69148 5.04116 9.55559C5.07728 9.41971 5.13627 9.29353 5.2147 9.18439C5.29313 9.07524 5.38943 8.98532 5.49801 8.91983C5.60659 8.85435 5.72529 8.81462 5.84719 8.80294C5.9691 8.79127 6.09178 8.80788 6.20812 8.85183C6.32445 8.89577 6.43211 8.96616 6.52484 9.05891L8.8672 11.3326L13.2213 5.41167C13.3956 5.17472 13.6436 5.02794 13.911 5.00359Z" fill="#45AC75"/>
</svg>
