<svg width="26" height="22" viewBox="0 0 26 22" fill="none" xmlns="http://www.w3.org/2000/svg">
<path d="M1.77864 9.65792C8.72386 6.632 13.3551 4.63713 15.6723 3.6733C22.2886 0.921389 23.6634 0.443352 24.5594 0.427399C24.7565 0.424096 25.1972 0.472938 25.4826 0.704555C25.7236 0.900127 25.7899 1.16432 25.8217 1.34974C25.8534 1.53517 25.8929 1.95757 25.8615 2.28762C25.503 6.05478 23.9516 15.1967 23.1624 19.416C22.8284 21.2013 22.1708 21.7999 21.5342 21.8585C20.1507 21.9858 19.1001 20.9442 17.7601 20.0658C15.6633 18.6913 14.4787 17.8357 12.4434 16.4944C10.0912 14.9443 11.616 14.0924 12.9565 12.7001C13.3073 12.3357 19.4031 6.79114 19.5211 6.28816C19.5358 6.22525 19.5495 5.99076 19.4102 5.86695C19.2709 5.74313 19.0653 5.78547 18.917 5.81915C18.7067 5.86688 15.3569 8.08092 8.8678 12.4613C7.917 13.1142 7.05578 13.4323 6.28417 13.4156C5.43352 13.3972 3.79722 12.9346 2.5808 12.5392C1.08881 12.0542 -0.0969888 11.7978 0.00626798 10.9742C0.0600505 10.5452 0.65084 10.1064 1.77864 9.65792Z" fill="#E5E5E5"/>
</svg>
