<svg width="27" height="22" viewBox="0 0 27 22" fill="none" xmlns="http://www.w3.org/2000/svg">
<path d="M26.0019 2.85284C25.0317 3.33796 24.0615 3.49967 22.9295 3.66137C24.0615 3.01455 24.87 2.04431 25.1934 0.750659C24.2232 1.39748 23.0912 1.7209 21.7976 2.04431C20.8273 1.07407 19.372 0.427246 17.9166 0.427246C14.5208 0.427246 11.9335 3.66137 12.742 6.8955C8.37593 6.73379 4.49498 4.63161 1.74597 1.39748C0.290613 3.82308 1.09914 6.8955 3.36303 8.51256C2.5545 8.51256 1.74597 8.18915 0.937438 7.86574C0.937438 10.2913 2.71621 12.5552 5.1418 13.202C4.33327 13.3638 3.52474 13.5255 2.71621 13.3638C3.36303 15.4659 5.30351 17.083 7.72911 17.083C5.78863 18.5384 2.87791 19.3469 0.128906 19.0235C2.5545 20.4788 5.30351 21.4491 8.21423 21.4491C18.0783 21.4491 23.5763 13.202 23.2529 5.60185C24.3849 4.95502 25.3551 3.98479 26.0019 2.85284Z" fill="#E5E5E5"/>
</svg>
