<svg width="117" height="21" viewBox="0 0 117 21" fill="none" xmlns="http://www.w3.org/2000/svg">
<path d="M15.0246 14.6498L12.117 9.62436L6.44548 19.4359H0.929468L12.117 0.0640759L23.3046 19.4359H7.42663L10.1906 14.6498H15.0246ZM21.6653 2.68448H26.4515V14.6498H34.8272L32.0632 19.4359H21.6653V2.68448ZM42.3414 2.68448H50.7171L47.9531 7.4706H42.3414C39.9483 7.4706 38.7518 8.66713 38.7518 11.0602C38.7518 13.4533 39.9483 14.6498 42.3414 14.6498H44.7345V8.66713H49.5206V19.4359H42.3414C36.7576 19.4359 33.9657 16.644 33.9657 11.0602C33.9657 5.47638 36.7576 2.68448 42.3414 2.68448ZM50.406 11.0602C50.406 5.47638 53.1979 2.68448 58.7817 2.68448C64.3656 2.68448 67.1575 5.47638 67.1575 11.0602C67.1575 16.644 64.3656 19.4359 58.7817 19.4359C53.1979 19.4359 50.406 16.644 50.406 11.0602ZM58.7817 7.4706C56.3887 7.4706 55.1921 8.66713 55.1921 11.0602C55.1921 13.4533 56.3887 14.6498 58.7817 14.6498C61.1748 14.6498 62.3713 13.4533 62.3713 11.0602C62.3713 8.66713 61.1748 7.4706 58.7817 7.4706ZM69.6103 7.4706L66.8464 2.68448H78.2134C81.803 2.68448 83.5978 4.47928 83.5978 8.06887C83.5978 11.6585 81.803 13.4533 78.2134 13.4533H72.829V18.2394L68.0429 20.6324V8.66713H78.2134C78.6122 8.66713 78.8117 8.46771 78.8117 8.06887C78.8117 7.67002 78.6122 7.4706 78.2134 7.4706H69.6103ZM84.1482 11.0602C84.1482 5.47638 86.9401 2.68448 92.5239 2.68448C98.1077 2.68448 100.9 5.47638 100.9 11.0602C100.9 16.644 98.1077 19.4359 92.5239 19.4359C86.9401 19.4359 84.1482 16.644 84.1482 11.0602ZM92.5239 7.4706C90.1309 7.4706 88.9343 8.66713 88.9343 11.0602C88.9343 13.4533 90.1309 14.6498 92.5239 14.6498C94.917 14.6498 96.1135 13.4533 96.1135 11.0602C96.1135 8.66713 94.917 7.4706 92.5239 7.4706ZM109.993 7.4706V18.2394L105.207 20.6324V7.4706H101.39L98.6262 2.68448H116.574L113.81 7.4706H109.993Z" fill="#45AC75"/>
</svg>
